<?xml version="1.0" encoding="utf-8"?>
<!-- Generator: Adobe Illustrator 16.0.0, SVG Export Plug-In . SVG Version: 6.00 Build 0)  -->
<!DOCTYPE svg PUBLIC "-//W3C//DTD SVG 1.1//EN" "http://www.w3.org/Graphics/SVG/1.1/DTD/svg11.dtd">
<svg version="1.1" xmlns="http://www.w3.org/2000/svg" xmlns:xlink="http://www.w3.org/1999/xlink" x="0px" y="0px" width="768px"
	 height="768px" viewBox="0 0 768 768" enable-background="new 0 0 768 768" xml:space="preserve">
<g id="Capa_1">
</g>
<g id="Capa_2">
	<rect x="10" y="8" fill="#29ABE2" stroke="#0071BC" stroke-width="20" stroke-miterlimit="10" width="748" height="751"/>
</g>
<g id="Capa_6">
	<path fill="#FFFFFF" stroke="#000000" stroke-width="4" stroke-miterlimit="10" d="M151.217,547.014
		c0,0,100.399-82.01,255.582-77.871c155.185,4.138,222.625,71.961,229.867,78.17c7.244,6.208,62.537-101.732,29.831-140.218
		c-32.786-38.58-78.598-38.584-113.826-90.049c-12.871-18.804-61.045-102.432-95.189-117.953c-34.146-15.52-88.467-9.86-107.606,0
		c-34.145,17.589-88.842,104.619-107.607,127.266c-30.005,36.212-108.64,60.011-120.899,86.1
		C102.093,453.48,113.675,500.683,151.217,547.014z"/>
	<polygon fill="#E50303" stroke="#000000" stroke-width="4" stroke-miterlimit="10" points="506,306 434,306 434,231 375,231 
		375,306 296,306 296,366 375,366 375,440 434,440 434,366 506,366 	"/>
</g>
<g id="Capa_4">
	<g>
		<path d="M239.202,583.647h11.801v35.297h37.996v-35.297h11.801v80.542h-11.801v-36.143h-37.996v36.143h-11.801V583.647z"/>
		<path d="M327.576,635.772c0.529,10.443,4.374,16.688,11.536,18.733c2.151,0.635,4.092,0.952,5.821,0.952
			c1.728,0,3.307-0.087,4.736-0.265c1.429-0.176,2.849-0.405,4.26-0.688c3.281-0.705,5.662-1.481,7.144-2.328l2.222,6.667
			c-2.928,2.399-7.832,4.058-14.711,4.975c-1.977,0.283-3.863,0.424-5.663,0.424c-8.538,0-15.135-2.717-19.792-8.149
			c-4.622-5.363-6.932-12.887-6.932-22.568c0-8.951,2.275-16.16,6.827-21.629c4.938-5.92,11.748-8.881,20.426-8.881
			c6.173,0,11.219,1.826,15.135,5.477c4.304,4.1,6.562,9.679,6.773,16.74c0,5.235-0.194,8.749-0.582,10.54H327.576z
			 M354.512,625.823c0-9.701-4.004-14.552-12.013-14.552c-8.502,0-13.388,5.592-14.658,16.775h26.618
			C354.494,627.306,354.512,626.564,354.512,625.823z"/>
		<path d="M380.918,576.821h11.643v87.368h-11.643V576.821z"/>
		<path d="M445.505,661.84c-3.722,1.603-7.62,2.403-11.694,2.403c-4.076,0-7.612-0.512-10.61-1.535l0.159,8.292v20.02h-11.643
			v-88.004h10.531v6.51c2.01-1.873,3.844-3.2,5.503-3.981c3.527-1.685,7.161-2.528,10.901-2.528c3.738,0,7.047,0.575,9.922,1.725
			s5.406,2.908,7.594,5.276c4.763,5.085,7.145,12.225,7.145,21.418c0,9.718-2.752,17.589-8.256,23.614
			C452.411,657.974,449.227,660.237,445.505,661.84z M436.271,611.324c-4.375,0-8.68,1.658-12.912,4.975v36.778
			c2.045,1.799,5.662,2.698,10.848,2.698c5.045,0,9.119-1.978,12.225-5.934c3.351-4.273,5.027-10.208,5.027-17.802
			C451.459,618.229,446.396,611.324,436.271,611.324z"/>
		<path d="M481.675,618.68h44.98v9.367h-44.98V618.68z"/>
		<path d="M550.84,583.647h11.959v80.542H550.84V583.647z"/>
	</g>
</g>
</svg>
