<?xml version="1.0" encoding="utf-8"?>
<!-- Generator: Adobe Illustrator 15.1.0, SVG Export Plug-In . SVG Version: 6.00 Build 0)  -->
<!DOCTYPE svg PUBLIC "-//W3C//DTD SVG 1.1//EN" "http://www.w3.org/Graphics/SVG/1.1/DTD/svg11.dtd">
<svg version="1.1" id="Layer_1" xmlns="http://www.w3.org/2000/svg" xmlns:xlink="http://www.w3.org/1999/xlink" x="0px" y="0px"
	 width="767.99px" height="768px" viewBox="0 0 767.99 768" enable-background="new 0 0 767.99 768" xml:space="preserve">
<rect y="8.5" fill="#29ABE2" width="767.99" height="751"/>
<g>
	<defs>
		<rect id="SVGID_1_" width="767.99" height="768"/>
	</defs>
	<clipPath id="SVGID_2_">
		<use xlink:href="#SVGID_1_"  overflow="visible"/>
	</clipPath>
	
		<rect x="8.25" y="8" clip-path="url(#SVGID_2_)" fill="none" stroke="#0071BC" stroke-width="20" stroke-miterlimit="10" width="759.74" height="751"/>
</g>
<g>
	<defs>
		<rect id="SVGID_3_" x="-96.505" y="32.75" width="969" height="726.75"/>
	</defs>
	<clipPath id="SVGID_4_">
		<use xlink:href="#SVGID_3_"  overflow="visible"/>
	</clipPath>
	<path clip-path="url(#SVGID_4_)" fill="#FFFFFF" d="M77.622,610.328c0,0,128.579-105.027,327.317-99.728
		c198.739,5.299,285.108,92.158,294.385,100.109c9.276,7.949,80.089-130.287,38.205-179.572
		c-41.99-49.41-100.66-49.415-145.776-115.324c-16.482-24.082-78.179-131.183-121.907-151.061
		c-43.727-19.875-113.296-12.627-137.808,0C288.31,187.28,218.26,298.737,194.229,327.739
		c-38.426,46.378-139.133,76.855-154.833,110.265C14.71,490.54,29.542,550.991,77.622,610.328"/>
	<path clip-path="url(#SVGID_4_)" fill="none" stroke="#000000" stroke-width="4" stroke-miterlimit="10" d="M77.622,610.328
		c0,0,128.579-105.027,327.317-99.728c198.739,5.299,285.108,92.158,294.385,100.109c9.276,7.949,80.089-130.287,38.205-179.572
		c-41.99-49.41-100.66-49.415-145.776-115.324c-16.482-24.082-78.179-131.183-121.907-151.061
		c-43.727-19.875-113.296-12.627-137.808,0C288.31,187.28,218.26,298.737,194.229,327.739
		c-38.426,46.378-139.133,76.855-154.833,110.265C14.71,490.54,29.542,550.991,77.622,610.328z"/>
	<polygon clip-path="url(#SVGID_4_)" fill="#E50303" points="532.777,302.442 439.095,302.442 439.095,205.921 363.392,205.921 
		363.392,302.442 264.031,302.442 264.031,378.146 363.392,378.146 363.392,474.667 439.095,474.667 439.095,378.146 
		532.777,378.146 	"/>
	<polygon clip-path="url(#SVGID_4_)" fill="none" stroke="#000000" stroke-width="4" stroke-miterlimit="10" points="
		532.777,302.442 439.095,302.442 439.095,205.921 363.392,205.921 363.392,302.442 264.031,302.442 264.031,378.146 
		363.392,378.146 363.392,474.667 439.095,474.667 439.095,378.146 532.777,378.146 	"/>
</g>
</svg>
