<?xml version="1.0" encoding="utf-8"?>
<!-- Generator: Adobe Illustrator 16.0.0, SVG Export Plug-In . SVG Version: 6.00 Build 0)  -->
<!DOCTYPE svg PUBLIC "-//W3C//DTD SVG 1.1//EN" "http://www.w3.org/Graphics/SVG/1.1/DTD/svg11.dtd">
<svg version="1.1" xmlns="http://www.w3.org/2000/svg" xmlns:xlink="http://www.w3.org/1999/xlink" x="0px" y="0px" width="768px"
	 height="768px" viewBox="0 0 768 768" enable-background="new 0 0 768 768" xml:space="preserve">
<g id="Capa_1">
	<rect x="10" y="10" fill="#29ABE2" stroke="#0071BC" stroke-width="20" stroke-miterlimit="10" width="748" height="748"/>
</g>
<g id="Capa_4">
	<path fill="#E8D99A" stroke="#000000" stroke-width="4" stroke-miterlimit="10" d="M284,0c0,0,8.379,99.118,21.314,161.667
		c12.935,62.548,34.206,145.967,10.944,219.93c-21.89,69.612-43.912,70.459-70.646,95.842
		c-22.97,21.808-72.642,79.689-13.932,171.497C290.389,740.743,258.389,767.988,293,768c17.912,0.006,107.17,0,107.17,0
		s-3.309-117.047,43.456-137.223s129.826-58.447,145.521-122.065c13.687-55.485,9.703-118.041-30.097-160.412
		c-39.801-42.373-81.328-72.115-95.525-79.693c-20.673-11.037,29.17-25.344,38.808-29.253C542.135,223.211,541,145,493,114
		c-35.555-22.962-91.908-76.286-104.104-87.515C377.516,16.004,370,0,370,0H284z"/>
</g>
<g id="Capa_5">
	<g>
		<path d="M49.195,646.138H28.298v-7.567h51.779v7.567H59.093v59.39h-9.898V646.138z"/>
		<path d="M110.872,663.162c-4.194,0-7.846,1.578-10.954,4.733v37.632H90.24v-50.855h8.139l0.616,6.181
			c1.936-2.472,5.059-4.319,9.37-5.541c1.408-0.427,3.05-0.64,4.928-0.64c1.876,0,3.27,0,4.179,0v10.278
			C115.887,663.759,113.688,663.162,110.872,663.162z"/>
		<path d="M127.348,701.738c-1.364-1.241-2.427-2.75-3.189-4.528c-0.763-1.779-1.144-4.06-1.144-6.839s0.88-5.337,2.64-7.669
			c3.695-4.902,10.91-7.354,21.645-7.354c1.642,0,3.167,0,4.575,0v-5.075c0-3.385-0.88-5.665-2.639-6.842
			c-1.467-0.971-4.15-1.457-8.051-1.457c-3.373,0-7.083,0.795-11.13,2.385c-1.056,0.406-1.863,0.812-2.42,1.214l-2.375-6.282
			c2.522-1.584,6.701-2.932,12.538-4.048c1.994-0.38,4.142-0.571,6.444-0.571c2.302,0,4.546,0.211,6.731,0.63
			c2.185,0.42,4.069,1.208,5.653,2.364c3.284,2.43,4.927,6.683,4.927,12.758v35.146h-3.959c-1.877,0-3.095-0.176-3.651-0.526
			c-0.998-0.675-1.496-2.023-1.496-4.048v-0.353c-2.405,2.2-5.646,3.696-9.722,4.488c-1.407,0.293-3.043,0.438-4.905,0.438
			c-1.863,0-3.732-0.327-5.609-0.985C130.331,703.928,128.711,702.979,127.348,701.738z M132.561,690.613
			c0,5.163,2.888,7.743,8.667,7.743c3.196,0,6.247-0.836,9.151-2.507c0.732-0.411,1.231-0.764,1.495-1.057V680.76
			c-3.431,0-6.35,0.294-8.754,0.88c-2.406,0.587-4.041,1.085-4.906,1.496c-0.865,0.41-1.635,0.843-2.31,1.297
			c-0.675,0.455-1.261,0.99-1.759,1.606C133.088,687.3,132.561,688.826,132.561,690.613z"/>
		<path d="M185.264,660.215c3.695-3.695,8.285-5.543,13.77-5.543c5.631,0,10.25,1.938,13.858,5.81
			c3.959,4.221,5.939,10.146,5.939,17.777c0,8.063-2.303,14.624-6.907,19.682c-4.693,5.088-10.822,7.63-18.389,7.63
			c-5.015,0-10.03-0.835-15.045-2.506c-1.232-0.411-2.083-0.777-2.552-1.1v-69.069h9.679v20.437L185.264,660.215z M196.35,662.282
			c-3.637,0-7.214,1.458-10.734,4.369v30.088c1.671,1.138,4.677,1.706,9.018,1.706c4.194,0,7.582-1.609,10.163-4.828
			c2.786-3.477,4.179-8.304,4.179-14.481C208.976,667.9,204.767,662.282,196.35,662.282z"/>
		<path d="M231.565,701.738c-1.363-1.241-2.427-2.75-3.189-4.528c-0.763-1.779-1.143-4.06-1.143-6.839s0.879-5.337,2.639-7.669
			c3.695-4.902,10.91-7.354,21.644-7.354c1.642,0,3.167,0,4.576,0v-5.075c0-3.385-0.88-5.665-2.64-6.842
			c-1.467-0.971-4.151-1.457-8.051-1.457c-3.374,0-7.083,0.795-11.13,2.385c-1.055,0.406-1.862,0.812-2.419,1.214l-2.375-6.282
			c2.522-1.584,6.701-2.932,12.538-4.048c1.994-0.38,4.143-0.571,6.445-0.571c2.302,0,4.545,0.211,6.731,0.63
			c2.184,0.42,4.069,1.208,5.653,2.364c3.285,2.43,4.927,6.683,4.927,12.758v35.146h-3.959c-1.877,0-3.095-0.176-3.651-0.526
			c-0.998-0.675-1.496-2.023-1.496-4.048v-0.353c-2.406,2.2-5.646,3.696-9.722,4.488c-1.408,0.293-3.043,0.438-4.906,0.438
			s-3.732-0.327-5.609-0.985C234.549,703.928,232.93,702.979,231.565,701.738z M236.779,690.613c0,5.163,2.889,7.743,8.667,7.743
			c3.196,0,6.247-0.836,9.15-2.507c0.733-0.411,1.232-0.764,1.496-1.057V680.76c-3.432,0-6.35,0.294-8.755,0.88
			c-2.405,0.587-4.041,1.085-4.905,1.496c-0.866,0.41-1.636,0.843-2.31,1.297c-0.675,0.455-1.262,0.99-1.76,1.606
			C237.307,687.3,236.779,688.826,236.779,690.613z"/>
		<path d="M269.377,720.089c1.291,0.646,2.801,0.968,4.531,0.968c1.73,0,3.036-0.29,3.915-0.869c0.88-0.577,1.569-1.431,2.068-2.558
			c0.968-2.14,1.452-5.523,1.452-10.153v-52.805h9.679v48.967c0,12.57-2.963,20.205-8.887,22.904
			c-1.936,0.858-4.355,1.289-7.259,1.289s-4.736-0.191-5.499-0.572V720.089z M290.692,643.784c-0.66,0.602-1.423,1.07-2.288,1.407
			c-0.866,0.338-1.731,0.506-2.596,0.506c-0.865,0-1.671-0.139-2.419-0.418c-0.749-0.278-1.416-0.682-2.001-1.209
			c-1.232-1.114-1.848-2.354-1.848-3.718c0-1.363,0.205-2.464,0.616-3.299c0.41-0.837,0.953-1.563,1.628-2.178
			c1.437-1.32,2.874-1.98,4.311-1.98c1.437,0,2.544,0.154,3.321,0.462s1.415,0.741,1.914,1.298c1.026,1.056,1.54,2.273,1.54,3.652
			s-0.198,2.485-0.594,3.321C291.879,642.464,291.351,643.183,290.692,643.784z"/>
		<path d="M323.708,705.57c-3.607,0-6.804-0.723-9.59-2.171c-7.86-3.995-11.79-11.855-11.79-23.581
			c0-8.137,2.229-14.433,6.687-18.893c4.164-4.168,9.561-6.254,16.189-6.254c7.566,0,13.271,2.649,17.113,7.947
			c3.285,4.546,4.927,10.597,4.927,18.154c0,7.847-2.243,14.028-6.73,18.544C336.407,703.487,330.805,705.57,323.708,705.57z
			 M324.764,698.709c4.135,0,7.281-1.549,9.436-4.646c2.156-3.097,3.233-7.542,3.233-13.335c0-8.759-2.288-14.608-6.862-17.549
			c-1.643-1.036-3.623-1.556-5.939-1.556c-4.047,0-7.142,1.514-9.282,4.539c-2.142,3.026-3.212,7.376-3.212,13.053
			c0,5.591,1.07,10.237,3.212,13.939C317.49,696.857,320.628,698.709,324.764,698.709z"/>
		<path d="M418.247,699.939c-3.754,3.755-8.4,5.631-13.945,5.631c-5.602,0-10.205-1.938-13.813-5.818
			c-3.96-4.227-5.939-10.162-5.939-17.807c0-8.077,2.288-14.621,6.863-19.629c4.634-5.097,10.72-7.645,18.258-7.645
			c2.902,0,5.631,0.426,8.182,1.275l-0.133-2.661v-20.391h9.678v72.675h-4.178c-1.73,0-2.876-0.176-3.432-0.526
			c-1.027-0.616-1.541-1.729-1.541-3.345V699.939z M417.72,664.336c-1.671-1.75-4.678-2.625-9.019-2.625
			c-4.164,0-7.537,1.612-10.117,4.839c-2.786,3.485-4.18,8.209-4.18,14.172c0,11.493,4.193,17.239,12.581,17.239
			c3.695,0,7.273-1.307,10.734-3.921V664.336z"/>
		<path d="M448.427,681.904c0.441,8.681,3.637,13.872,9.592,15.572c1.788,0.528,3.401,0.792,4.839,0.792
			c1.436,0,2.75-0.072,3.938-0.22c1.186-0.146,2.367-0.337,3.54-0.572c2.727-0.586,4.706-1.232,5.938-1.936l1.849,5.544
			c-2.436,1.994-6.512,3.372-12.23,4.135c-1.644,0.234-3.212,0.351-4.706,0.351c-7.1,0-12.584-2.256-16.454-6.773
			c-3.844-4.459-5.764-10.712-5.764-18.762c0-7.44,1.893-13.435,5.676-17.979c4.105-4.921,9.766-7.384,16.98-7.384
			c5.132,0,9.326,1.518,12.582,4.553c3.578,3.408,5.455,8.048,5.632,13.917c0,4.352-0.162,7.272-0.484,8.763H448.427z
			 M470.819,673.633c0-8.064-3.328-12.098-9.985-12.098c-7.069,0-11.132,4.648-12.187,13.945h22.128
			C470.804,674.865,470.819,674.249,470.819,673.633z"/>
		<path d="M548.313,703.574c-3.097,1.331-6.335,1.996-9.723,1.996c-3.389,0-6.328-0.424-8.82-1.275l0.131,6.894v16.644h-9.679
			v-73.16h8.755v5.412c1.673-1.558,3.197-2.661,4.575-3.31c2.933-1.4,5.954-2.103,9.063-2.103c3.107,0,5.857,0.479,8.247,1.434
			s4.495,2.417,6.313,4.387c3.96,4.228,5.939,10.162,5.939,17.805c0,8.078-2.287,14.623-6.863,19.632
			C554.055,700.36,551.406,702.242,548.313,703.574z M540.636,661.578c-3.637,0-7.215,1.38-10.734,4.137v30.574
			c1.701,1.496,4.707,2.243,9.02,2.243c4.193,0,7.58-1.645,10.161-4.933c2.787-3.552,4.18-8.486,4.18-14.799
			C553.262,667.32,549.054,661.578,540.636,661.578z"/>
		<path d="M575.852,701.738c-1.362-1.241-2.427-2.75-3.189-4.528c-0.763-1.779-1.143-4.06-1.143-6.839s0.88-5.337,2.639-7.669
			c3.696-4.902,10.91-7.354,21.645-7.354c1.643,0,3.168,0,4.576,0v-5.075c0-3.385-0.88-5.665-2.641-6.842
			c-1.468-0.971-4.15-1.457-8.051-1.457c-3.373,0-7.082,0.795-11.13,2.385c-1.055,0.406-1.863,0.812-2.42,1.214l-2.376-6.282
			c2.521-1.584,6.701-2.932,12.539-4.048c1.994-0.38,4.142-0.571,6.444-0.571s4.546,0.211,6.731,0.63
			c2.184,0.42,4.069,1.208,5.653,2.364c3.283,2.43,4.927,6.683,4.927,12.758v35.146h-3.96c-1.878,0-3.094-0.176-3.652-0.526
			c-0.997-0.675-1.494-2.023-1.494-4.048v-0.353c-2.405,2.2-5.647,3.696-9.723,4.488c-1.408,0.293-3.043,0.438-4.905,0.438
			c-1.863,0-3.732-0.327-5.609-0.985C578.836,703.928,577.216,702.979,575.852,701.738z M581.064,690.613
			c0,5.163,2.889,7.743,8.667,7.743c3.195,0,6.247-0.836,9.149-2.507c0.733-0.411,1.232-0.764,1.498-1.057V680.76
			c-3.433,0-6.351,0.294-8.756,0.88c-2.405,0.587-4.04,1.085-4.905,1.496c-0.864,0.41-1.636,0.843-2.309,1.297
			c-0.676,0.455-1.263,0.99-1.761,1.606C581.593,687.3,581.064,688.826,581.064,690.613z"/>
		<path d="M645.161,663.162c-4.194,0-7.846,1.578-10.953,4.733v37.632h-9.678v-50.855h8.138l0.616,6.181
			c1.937-2.472,5.059-4.319,9.371-5.541c1.406-0.427,3.05-0.64,4.927-0.64c1.875,0,3.27,0,4.18,0v10.278
			C650.178,663.759,647.978,663.162,645.161,663.162z"/>
		<path d="M663.199,661.975h-6.511v-5.234c1.085-0.322,2.038-0.593,2.859-0.811c0.821-0.221,1.525-0.462,2.111-0.725
			c1.174-0.556,1.979-1.41,2.421-2.565c0.438-1.154,0.886-2.499,1.34-4.033s0.991-3.311,1.607-5.329h5.807v11.395h14.165v7.303
			h-14.165v25.41c0,4.726,0.263,7.56,0.791,8.498c0.528,0.94,1.151,1.498,1.871,1.675c0.717,0.176,1.538,0.263,2.463,0.263
			c0.924,0,1.796-0.058,2.618-0.176c0.819-0.116,1.628-0.264,2.418-0.439c1.849-0.41,3.167-0.836,3.961-1.275l1.67,5.551
			c-2.374,1.76-5.689,3.007-9.941,3.739c-1.349,0.234-2.743,0.351-4.18,0.351c-1.438,0-2.859-0.176-4.267-0.526
			c-1.407-0.353-2.64-0.999-3.695-1.938c-2.229-2.024-3.344-5.445-3.344-10.261V661.975z"/>
		<path d="M716.167,705.57c-3.608,0-6.805-0.723-9.592-2.171c-7.859-3.995-11.79-11.855-11.79-23.581
			c0-8.137,2.229-14.433,6.688-18.893c4.164-4.168,9.561-6.254,16.188-6.254c7.567,0,13.272,2.649,17.112,7.947
			c3.285,4.546,4.929,10.597,4.929,18.154c0,7.847-2.243,14.028-6.731,18.544C728.864,703.487,723.264,705.57,716.167,705.57z
			 M717.223,698.709c4.134,0,7.28-1.549,9.436-4.646c2.156-3.097,3.233-7.542,3.233-13.335c0-8.759-2.287-14.608-6.862-17.549
			c-1.645-1.036-3.624-1.556-5.939-1.556c-4.047,0-7.143,1.514-9.282,4.539c-2.141,3.026-3.212,7.376-3.212,13.053
			c0,5.591,1.071,10.237,3.212,13.939C709.947,696.857,713.086,698.709,717.223,698.709z"/>
	</g>
</g>
</svg>
