<?xml version="1.0" encoding="utf-8"?>
<!-- Generator: Adobe Illustrator 16.0.0, SVG Export Plug-In . SVG Version: 6.00 Build 0)  -->
<!DOCTYPE svg PUBLIC "-//W3C//DTD SVG 1.1//EN" "http://www.w3.org/Graphics/SVG/1.1/DTD/svg11.dtd">
<svg version="1.1" xmlns="http://www.w3.org/2000/svg" xmlns:xlink="http://www.w3.org/1999/xlink" x="0px" y="0px" width="768px"
	 height="768px" viewBox="0 0 768 768" enable-background="new 0 0 768 768" xml:space="preserve">
<g id="Capa_2">
	<rect x="7" y="8" fill="#66D333" stroke="#38771B" stroke-width="20" stroke-miterlimit="10" width="753" height="752"/>
</g>
<g id="Capa_5">
	<g>
		<path fill="#FFFFFF" stroke="#000000" stroke-width="4" stroke-miterlimit="10" d="M188.855,568H591V134H370.229l2.982,42.28
			l16.45,233.019c0,0-93.653-33.738-149.795,7.288c-56.141,41.025-62.268,81.563-60.727,102.021
			C180.916,542.221,188.855,568,188.855,568z"/>
		<line fill="none" stroke="#000000" stroke-width="4" stroke-miterlimit="10" x1="590.468" y1="243.04" x2="373.211" y2="176.28"/>
		
			<line fill="none" stroke="#000000" stroke-width="4" stroke-miterlimit="10" x1="590.468" y1="286.224" x2="382.192" y2="303.499"/>
		
			<line fill="none" stroke="#000000" stroke-width="4" stroke-miterlimit="10" x1="389.661" y1="409.299" x2="590.468" y2="568.001"/>
		
			<line fill="none" stroke="#000000" stroke-width="4" stroke-miterlimit="10" x1="590.468" y1="426.571" x2="476.983" y2="477.378"/>
		
			<line fill="none" stroke="#000000" stroke-width="4" stroke-miterlimit="10" x1="373.211" y1="405.63" x2="401.538" y2="568.001"/>
		<path fill="none" stroke="#000000" stroke-width="4" stroke-miterlimit="10" d="M303.855,396.461
			c-0.24,0.063-16.753,171.54-16.753,171.54"/>
		
			<line fill="#FFFFFF" stroke="#000000" stroke-width="4" stroke-miterlimit="10" x1="205.372" y1="448.291" x2="246.076" y2="568.001"/>
	</g>
	<g>
		<path d="M147.285,598.968h48.532v9.551h-36.093v27.709h27.042v9.551h-27.042v37.703h-12.438V598.968z"/>
		<path d="M232.021,630.008c-5.294,0-9.903,1.991-13.826,5.974v47.5h-12.216v-64.19h10.272l0.777,7.802
			c2.443-3.12,6.386-5.452,11.828-6.995c1.777-0.538,3.85-0.807,6.219-0.807c2.368,0,4.127,0,5.275,0v12.974
			C238.351,630.761,235.574,630.008,232.021,630.008z"/>
		<path d="M252.816,678.698c-1.721-1.565-3.063-3.472-4.026-5.717c-0.963-2.245-1.444-5.122-1.444-8.631s1.111-6.735,3.332-9.679
			c4.664-6.188,13.771-9.282,27.32-9.282c2.073,0,3.998,0,5.775,0v-6.407c0-4.271-1.111-7.15-3.332-8.635
			c-1.852-1.226-5.239-1.839-10.162-1.839c-4.257,0-8.94,1.004-14.048,3.011c-1.333,0.511-2.352,1.022-3.054,1.531l-2.999-7.93
			c3.184-1.999,8.458-3.701,15.826-5.108c2.517-0.48,5.228-0.722,8.135-0.722c2.906,0,5.738,0.266,8.496,0.795
			c2.757,0.529,5.137,1.523,7.136,2.984c4.145,3.066,6.219,8.435,6.219,16.103v44.364h-4.998c-2.369,0-3.906-0.223-4.608-0.666
			c-1.259-0.852-1.888-2.555-1.888-5.109v-0.443c-3.036,2.776-7.127,4.664-12.271,5.663c-1.777,0.371-3.841,0.556-6.191,0.556
			c-2.352,0-4.711-0.415-7.08-1.245C256.583,681.463,254.537,680.265,252.816,678.698z M259.396,664.657
			c0,6.516,3.646,9.773,10.939,9.773c4.034,0,7.885-1.056,11.55-3.165c0.925-0.518,1.555-0.962,1.888-1.333v-17.714
			c-4.332,0-8.016,0.371-11.05,1.111c-3.036,0.74-5.1,1.37-6.191,1.888c-1.092,0.519-2.064,1.064-2.915,1.638
			c-0.853,0.574-1.592,1.25-2.221,2.027C260.063,660.475,259.396,662.399,259.396,664.657z"/>
		<path d="M354.516,632.738c-3.295-2.671-8.033-4.008-14.215-4.008c-4.85,0-8.904,1.637-12.161,4.908
			c-4.035,4.108-6.052,10.107-6.052,17.996c0,6.798,1.638,12.278,4.914,16.441c3.276,4.163,7.598,6.243,12.966,6.243
			c4.22,0,8.366-0.789,12.438-2.367c1.073-0.394,1.961-0.807,2.665-1.236l2.499,6.824c-4.332,3.998-10.81,5.997-19.435,5.997
			c-8.662,0-15.529-3.015-20.601-9.045c-4.813-5.7-7.218-13.175-7.218-22.421c0-9.61,2.554-17.377,7.663-23.298
			c5.442-6.321,13.085-9.482,22.933-9.482c6.959,0,12.142,1.093,15.548,3.276L354.516,632.738z"/>
		<path d="M373.229,628.509h-8.218V621.9c1.369-0.405,2.573-0.746,3.609-1.023c1.036-0.276,1.924-0.581,2.666-0.913
			c1.48-0.701,2.499-1.78,3.054-3.238c0.555-1.457,1.119-3.154,1.693-5.091c0.574-1.937,1.25-4.18,2.027-6.726h7.329v14.382h17.881
			v9.218h-17.881v32.073c0,5.965,0.334,9.541,1,10.727c0.666,1.187,1.452,1.891,2.359,2.112c0.907,0.223,1.943,0.333,3.109,0.333
			s2.268-0.073,3.305-0.222c1.036-0.146,2.055-0.333,3.055-0.556c2.332-0.518,3.998-1.055,4.998-1.61l2.109,7.007
			c-2.998,2.221-7.183,3.795-12.549,4.72c-1.704,0.297-3.463,0.444-5.275,0.444c-1.814,0-3.61-0.223-5.387-0.667
			c-1.777-0.444-3.332-1.261-4.665-2.446c-2.813-2.556-4.22-6.873-4.22-12.95V628.509z"/>
		<path d="M417.207,619.291h12.217v36.965c0,7.411,0.888,12.247,2.665,14.507c0.925,1.149,2.128,1.891,3.609,2.224
			c1.48,0.334,3.035,0.5,4.664,0.5s3.128-0.147,4.498-0.444c1.369-0.295,2.702-0.666,3.998-1.11
			c2.555-0.889,4.646-1.851,6.274-2.888v-49.753h12.217v64.246h-4.721c-2.184,0-3.609-0.223-4.275-0.666
			c-1.222-0.777-1.832-2.184-1.832-4.221v-1.555c-4.48,2.814-9.515,4.775-15.104,5.886c-1.889,0.371-4.268,0.556-7.136,0.556
			c-2.869,0-5.535-0.657-7.996-1.973c-2.462-1.316-4.378-3.177-5.747-5.586c-2.221-3.927-3.332-10.484-3.332-19.674V619.291z"/>
		<path d="M512.493,630.008c-5.294,0-9.902,1.991-13.826,5.974v47.5h-12.216v-64.19h10.272l0.777,7.802
			c2.443-3.12,6.386-5.452,11.827-6.995c1.777-0.538,3.85-0.807,6.22-0.807c2.369,0,4.127,0,5.275,0v12.974
			C518.824,630.761,516.048,630.008,512.493,630.008z"/>
		<path d="M533.289,678.698c-1.722-1.565-3.064-3.472-4.026-5.717s-1.443-5.122-1.443-8.631s1.11-6.735,3.332-9.679
			c4.664-6.188,13.771-9.282,27.319-9.282c2.072,0,3.998,0,5.775,0v-6.407c0-4.271-1.111-7.15-3.332-8.635
			c-1.852-1.226-5.238-1.839-10.161-1.839c-4.258,0-8.94,1.004-14.049,3.011c-1.333,0.511-2.352,1.022-3.055,1.531l-2.998-7.93
			c3.183-1.999,8.458-3.701,15.825-5.108c2.517-0.48,5.229-0.722,8.135-0.722c2.905,0,5.737,0.266,8.496,0.795
			c2.758,0.529,5.137,1.523,7.136,2.984c4.146,3.066,6.219,8.435,6.219,16.103v44.364h-4.997c-2.37,0-3.906-0.223-4.609-0.666
			c-1.259-0.852-1.888-2.555-1.888-5.109v-0.443c-3.036,2.776-7.127,4.664-12.271,5.663c-1.777,0.371-3.842,0.556-6.191,0.556
			c-2.352,0-4.711-0.415-7.08-1.245C537.055,681.463,535.01,680.265,533.289,678.698z M539.869,664.657
			c0,6.516,3.646,9.773,10.938,9.773c4.035,0,7.886-1.056,11.55-3.165c0.926-0.518,1.556-0.962,1.889-1.333v-17.714
			c-4.331,0-8.016,0.371-11.051,1.111c-3.036,0.74-5.1,1.37-6.191,1.888c-1.092,0.519-2.064,1.064-2.915,1.638
			c-0.852,0.574-1.592,1.25-2.221,2.027C540.535,660.475,539.869,662.399,539.869,664.657z"/>
		<path d="M593.453,670.075c2.518,1.614,6.46,2.888,11.828,3.818c2.184,0.396,4.664,0.593,7.44,0.593s5.137-0.666,7.08-1.997
			c1.943-1.33,2.915-3.219,2.915-5.662c0-3.244-2.665-6.162-7.996-8.752c-1.555-0.766-3.415-1.604-5.58-2.517
			c-2.166-0.91-4.342-1.987-6.525-3.228c-7.07-4.12-10.605-9.627-10.605-16.52c0-5.323,2.276-9.481,6.83-12.473
			c4.071-2.698,9.421-4.048,16.048-4.048c5.034,0,9.643,0.777,13.826,2.332c1,0.371,1.739,0.686,2.222,0.944l-1.999,9.745
			c-1.777-1.704-4.887-2.918-9.329-3.643c-1.407-0.255-2.851-0.383-4.331-0.383c-3.925,0-6.904,0.61-8.94,1.832
			s-3.054,2.717-3.054,4.485c0,1.77,0.268,3.183,0.805,4.24s1.342,2.024,2.416,2.898c1.739,1.496,4.21,2.882,7.413,4.158
			c3.201,1.277,5.903,2.489,8.106,3.638s4.211,2.489,6.025,4.021c4.034,3.502,6.053,7.677,6.053,12.527
			c0,5.616-2.019,9.938-6.053,12.965c-3.888,2.99-9.312,4.485-16.27,4.485c-6.368,0-12.014-0.962-16.937-2.888
			c-1.407-0.518-2.48-1.055-3.221-1.61L593.453,670.075z"/>
	</g>
</g>
</svg>
