<?xml version="1.0" encoding="utf-8"?>
<!-- Generator: Adobe Illustrator 16.0.0, SVG Export Plug-In . SVG Version: 6.00 Build 0)  -->
<!DOCTYPE svg PUBLIC "-//W3C//DTD SVG 1.1//EN" "http://www.w3.org/Graphics/SVG/1.1/DTD/svg11.dtd">
<svg version="1.1" xmlns="http://www.w3.org/2000/svg" xmlns:xlink="http://www.w3.org/1999/xlink" x="0px" y="0px" width="768px"
	 height="768px" viewBox="0 0 768 768" enable-background="new 0 0 768 768" xml:space="preserve">
<g id="Capa_1">
</g>
<g id="Capa_4">
	<rect x="12" y="11" fill="#29ABE2" stroke="#0071BC" stroke-width="20" stroke-miterlimit="10" width="747" height="748"/>
</g>
<g id="Capa_6">
	<path fill="#F7B716" stroke="#000000" stroke-width="4" stroke-miterlimit="10" d="M215.987,517.019c0,0,1.926,22.524,6.895,24.627
		s39.398,5.298,53.597,4.588c14.197-0.71,42.593-0.355,49.692-0.355s33.009,3.549,44.013,4.97
		c11.003,1.42,62.469,15.618,70.277,15.263c7.811-0.355,36.694-19.227,47.209-26.976c12.468-9.189,35.043-22.418,39.398-25.201
		c11.105-7.096,24.846-14.553,28.039-18.456c2.421-2.959,1.438-25.557,1.438-25.557l-120.342,52.887L215.987,517.019z"/>
	<path fill="#F7B716" stroke="#000000" stroke-width="4" stroke-miterlimit="10" d="M291.251,459.628
		c0,0-83.616,51.222-76.887,56.464c11.357,8.845,116.065,7.426,128.844,9.556c12.778,2.129,67.636,11.72,77.732,13.842
		c12.068,2.537,23.781,3.194,30.17,0c6.05-3.026,67.82-43.14,73.118-45.847c7.47-3.819,32.098-18.795,32.308-25.142
		c0.213-6.39-3.327-8.44-17.046-11.003c-11.385-2.128-64.6-12.423-64.6-12.423L291.251,459.628z"/>
	<path fill="#F7B716" stroke="#000000" stroke-width="4" stroke-miterlimit="10" d="M297.065,492.281
		c0,0,34.785,29.816,93.705,22.717c58.921-7.099,86.606-24.846,95.835-35.494c1.41-9.801-17.419-83.254-21.297-109.322
		c-3.884-26.109-10.601-52.024-18.309-103.475c-3.363-22.453-8.129-55.21-12.45-83.727c-3.652-24.103-13.598-60.151-17.786-71.145
		c-8.731-22.917-37.969-24.636-51.581,3.558c-23.274,48.207-29.717,112.732-34.387,136.361
		c-2.955,14.953-10.143,64.823-17.193,96.046C305.997,381.477,277.189,483.054,297.065,492.281z"/>
	<path fill="#FFFFFF" stroke="#000000" stroke-miterlimit="10" d="M296.705,426.433c0,0,31.832,16.516,61.647,18.643
		c29.816,2.126,57.688-0.127,75.721-2.964c18.034-2.836,35.325-21.348,39.385-24.795l6.893,30.682c0,0-16.699,23.004-46.514,30.804
		c-26.148,6.842-61.288,4.438-75.484,3.778c-15.487-0.719-66.316-18.797-66.316-18.797L296.705,426.433z"/>
	<path fill="#FFFFFF" stroke="#000000" stroke-miterlimit="10" d="M340.665,200.091c0,0,22.243,9.091,33.014,10.648
		c10.771,1.558,19.112,0.377,25.722-0.741c6.605-1.117,34.438-13.798,35.371-15.456l3.3,20.834c0,0-21.309,10.07-34.907,12.801
		c-9.897,1.988-28.994,1.275-34.079,0.354c-12.13-2.196-31.43-9.633-31.43-9.633L340.665,200.091z"/>
	<line fill="#F7B716" stroke="#000000" stroke-width="4" stroke-miterlimit="10" x1="444" y1="543.396" x2="442.437" y2="565.757"/>
	<path fill="#FFFFFF" stroke="#000000" stroke-miterlimit="10" d="M321.828,313.488c0,0,26.62,17.035,46.776,19.17
		c20.158,2.135,31.311,2.091,43.591,0.434c12.28-1.658,38.619-19.831,40.808-22.05l5.114,26.014c0,0-19.949,15.061-40.321,20.021
		c-17.867,4.356-45.237,2.017-54.842,1.252c-10.479-0.833-47.128-15.495-47.128-15.495L321.828,313.488z"/>
	<path fill="none" stroke="#000000" stroke-width="4" stroke-miterlimit="10" d="M371.852,106.859c0,0,6.292,5.493,14.035,6.688
		c7.742,1.193,21.981,1.005,25.582-0.177c3.6-1.183,3.6-1.183,3.6-1.183"/>
</g>
<g id="Capa_7">
	<g>
		<path d="M125.156,621.403h12.086l31.931,85.56h-13.548l-7.308-21.643h-34.966l-7.645,21.643H92.438L125.156,621.403z
			 M145.169,675.988l-11.468-33.165l-2.417-7.733l-2.474,7.733l-12.143,33.165H145.169z"/>
		<path d="M220.554,655.592c-3.336-2.704-8.133-4.057-14.391-4.057c-4.91,0-9.014,1.656-12.311,4.969
			c-4.085,4.158-6.127,10.231-6.127,18.218c0,6.883,1.658,12.431,4.975,16.646c3.316,4.214,7.692,6.32,13.126,6.32
			c4.272,0,8.469-0.799,12.592-2.396c1.087-0.398,1.986-0.816,2.699-1.252l2.529,6.909c-4.385,4.048-10.943,6.071-19.675,6.071
			c-8.77,0-15.722-3.052-20.856-9.157c-4.872-5.771-7.308-13.337-7.308-22.698c0-9.729,2.586-17.592,7.758-23.586
			c5.509-6.399,13.248-9.6,23.217-9.6c7.045,0,12.292,1.105,15.74,3.316L220.554,655.592z"/>
		<path d="M276.882,655.592c-3.336-2.704-8.133-4.057-14.391-4.057c-4.91,0-9.014,1.656-12.311,4.969
			c-4.085,4.158-6.128,10.231-6.128,18.218c0,6.883,1.659,12.431,4.975,16.646c3.317,4.214,7.692,6.32,13.126,6.32
			c4.272,0,8.469-0.799,12.592-2.396c1.087-0.398,1.986-0.816,2.698-1.252l2.53,6.909c-4.385,4.048-10.943,6.071-19.675,6.071
			c-8.77,0-15.722-3.052-20.856-9.157c-4.872-5.771-7.308-13.337-7.308-22.698c0-9.729,2.586-17.592,7.758-23.586
			c5.509-6.399,13.248-9.6,23.217-9.6c7.046,0,12.292,1.105,15.741,3.316L276.882,655.592z"/>
		<path d="M305.974,628.064c-0.843,0.77-1.818,1.368-2.923,1.799c-1.106,0.432-2.212,0.646-3.317,0.646
			c-1.105,0-2.136-0.178-3.092-0.533s-1.809-0.872-2.558-1.547c-1.574-1.423-2.361-3.007-2.361-4.75
			c0-1.742,0.262-3.147,0.787-4.216c0.524-1.068,1.217-1.996,2.08-2.783c1.835-1.687,3.672-2.529,5.509-2.529
			c1.836,0,3.251,0.196,4.245,0.59c0.992,0.394,1.808,0.947,2.445,1.659c1.312,1.349,1.967,2.904,1.967,4.665
			c0,1.763-0.253,3.177-0.759,4.245C307.491,626.378,306.816,627.297,305.974,628.064z M293.859,641.979h12.368v64.984h-12.368
			V641.979z"/>
		<path d="M365.59,699.824c-4.797,4.797-10.737,7.195-17.82,7.195c-7.158,0-13.042-2.479-17.651-7.436
			c-5.06-5.402-7.589-12.986-7.589-22.754c0-10.323,2.923-18.684,8.77-25.085c5.92-6.511,13.697-9.767,23.329-9.767
			c3.71,0,7.196,0.544,10.456,1.63l-0.168-3.401v-26.056h12.367v92.868h-5.34c-2.211,0-3.673-0.225-4.385-0.675
			c-1.312-0.787-1.968-2.21-1.968-4.272V699.824z M364.916,654.326c-2.136-2.235-5.978-3.354-11.524-3.354
			c-5.322,0-9.632,2.062-12.929,6.184c-3.561,4.454-5.341,10.49-5.341,18.109c0,14.687,5.359,22.028,16.078,22.028
			c4.722,0,9.294-1.67,13.717-5.01V654.326z"/>
		<path d="M404.154,676.775c0.563,11.094,4.646,17.728,12.255,19.9c2.285,0.675,4.347,1.012,6.184,1.012
			c1.836,0,3.514-0.093,5.031-0.281c1.518-0.187,3.025-0.431,4.525-0.73c3.485-0.749,6.015-1.574,7.589-2.474l2.361,7.083
			c-3.111,2.549-8.32,4.311-15.628,5.285c-2.1,0.3-4.104,0.449-6.016,0.449c-9.069,0-16.077-2.885-21.024-8.657
			c-4.91-5.696-7.364-13.688-7.364-23.974c0-9.509,2.417-17.167,7.252-22.977c5.246-6.289,12.48-9.434,21.699-9.434
			c6.559,0,11.918,1.939,16.078,5.817c4.571,4.354,6.971,10.281,7.195,17.783c0,5.562-0.207,9.294-0.618,11.196H404.154z
			 M432.768,666.206c0-10.305-4.254-15.458-12.761-15.458c-9.032,0-14.223,5.94-15.571,17.82h28.276
			C432.749,667.781,432.768,666.994,432.768,666.206z"/>
		<path d="M459.639,641.979h11.019l0.056,7.555c4.685-3.116,10.007-5.362,15.966-6.74c2.474-0.543,5.06-0.814,7.758-0.814
			s5.209,0.403,7.532,1.207c2.323,0.806,4.254,2.201,5.79,4.185c2.886,3.783,4.329,10.354,4.329,19.715v39.878h-12.367v-39.927
			c0-5.617-0.75-9.492-2.249-11.626c-1.5-2.172-4.198-3.257-8.095-3.257c-4.235,0-8.677,1.319-13.323,3.958
			c-1.425,0.796-2.773,1.717-4.048,2.764v48.088h-12.367V641.979z"/>
		<path d="M534.462,651.31h-8.32v-6.689c1.387-0.411,2.604-0.756,3.654-1.036c1.049-0.28,1.948-0.589,2.698-0.925
			c1.499-0.71,2.529-1.802,3.092-3.278c0.563-1.475,1.134-3.193,1.715-5.154c0.58-1.96,1.265-4.23,2.052-6.809h7.42v14.561h18.102
			v9.331h-18.102v32.471c0,6.039,0.338,9.659,1.013,10.859c0.674,1.201,1.471,1.914,2.389,2.139s1.968,0.337,3.148,0.337
			s2.295-0.074,3.345-0.225c1.049-0.148,2.08-0.337,3.092-0.563c2.361-0.523,4.048-1.067,5.06-1.63l2.136,7.093
			c-3.035,2.249-7.271,3.842-12.704,4.779c-1.725,0.3-3.505,0.449-5.341,0.449c-1.837,0-3.654-0.225-5.453-0.676
			c-1.799-0.449-3.373-1.275-4.722-2.476c-2.849-2.588-4.272-6.958-4.272-13.111V651.31z"/>
		<path d="M586.967,676.775c0.563,11.094,4.647,17.728,12.255,19.9c2.286,0.675,4.347,1.012,6.184,1.012s3.514-0.093,5.032-0.281
			c1.518-0.187,3.025-0.431,4.525-0.73c3.485-0.749,6.015-1.574,7.589-2.474l2.361,7.083c-3.111,2.549-8.32,4.311-15.629,5.285
			c-2.099,0.3-4.104,0.449-6.015,0.449c-9.069,0-16.077-2.885-21.024-8.657c-4.91-5.696-7.364-13.688-7.364-23.974
			c0-9.509,2.417-17.167,7.252-22.977c5.246-6.289,12.479-9.434,21.699-9.434c6.558,0,11.917,1.939,16.077,5.817
			c4.572,4.354,6.971,10.281,7.196,17.783c0,5.562-0.207,9.294-0.619,11.196H586.967z M615.581,666.206
			c0-10.305-4.255-15.458-12.761-15.458c-9.033,0-14.223,5.94-15.572,17.82h28.276C615.562,667.781,615.581,666.994,615.581,666.206
			z"/>
		<path d="M640.709,693.391c2.548,1.634,6.539,2.924,11.974,3.866c2.211,0.4,4.723,0.6,7.533,0.6s5.2-0.674,7.168-2.021
			c1.967-1.347,2.951-3.259,2.951-5.731c0-3.285-2.698-6.239-8.096-8.861c-1.573-0.774-3.457-1.624-5.649-2.547
			s-4.395-2.013-6.605-3.268c-7.158-4.172-10.737-9.747-10.737-16.725c0-5.39,2.306-9.6,6.915-12.627
			c4.122-2.731,9.538-4.098,16.246-4.098c5.097,0,9.763,0.786,13.998,2.36c1.012,0.376,1.761,0.694,2.248,0.956l-2.023,9.865
			c-1.799-1.725-4.947-2.953-9.444-3.688c-1.424-0.258-2.886-0.388-4.385-0.388c-3.973,0-6.989,0.618-9.051,1.855
			c-2.062,1.236-3.092,2.751-3.092,4.54c0,1.792,0.271,3.223,0.815,4.294c0.543,1.07,1.358,2.049,2.445,2.934
			c1.761,1.515,4.263,2.918,7.505,4.21c3.241,1.293,5.977,2.52,8.207,3.684c2.229,1.162,4.263,2.52,6.1,4.069
			c4.085,3.546,6.128,7.771,6.128,12.683c0,5.686-2.043,10.062-6.128,13.125c-3.936,3.027-9.426,4.541-16.471,4.541
			c-6.447,0-12.162-0.974-17.146-2.923c-1.424-0.524-2.512-1.068-3.26-1.631L640.709,693.391z"/>
	</g>
</g>
</svg>
