<?xml version="1.0" encoding="utf-8"?>
<!-- Generator: Adobe Illustrator 16.0.0, SVG Export Plug-In . SVG Version: 6.00 Build 0)  -->
<!DOCTYPE svg PUBLIC "-//W3C//DTD SVG 1.1//EN" "http://www.w3.org/Graphics/SVG/1.1/DTD/svg11.dtd">
<svg version="1.1" xmlns="http://www.w3.org/2000/svg" xmlns:xlink="http://www.w3.org/1999/xlink" x="0px" y="0px" width="768px"
	 height="768px" viewBox="0 0 768 768" enable-background="new 0 0 768 768" xml:space="preserve">
<g id="Capa_1">
	<rect x="11" y="10" fill="#29ABE2" stroke="#0071BC" stroke-width="20" stroke-miterlimit="10" width="747" height="748"/>
</g>
<g id="Capa_4">
	<path fill="#FFFFFF" stroke="#000000" stroke-width="4" stroke-miterlimit="10" d="M175,596c34-1,89.763-18.832,134-31
		c41.785-11.493,159-51,187-68c19.813-12.029,30.251-28.365,34-42.723c6.892-26.393-16.904-49.277-71-70.253
		c-27.716-10.747-97.633-35.865-108.804-36.982c-11.169-1.117,77.109-20.573,105.003-35.745C487,294,522.221,261.029,503.23,210.763
		c-18.989-50.266-64.787-65.905-123.99-49.149S124.171,256.98,120.088,352.627C116.87,428,171.162,451.06,203,454.277
		c77,7.781,147.196,3.351,147.196,3.351S119.211,597.641,175,596z"/>
	
		<line fill="none" stroke="#000000" stroke-width="4" stroke-miterlimit="10" x1="513.096" y1="367.941" x2="580.904" y2="462.059"/>
	<line fill="none" stroke="#000000" stroke-width="4" stroke-miterlimit="10" x1="523" y1="350" x2="648" y2="350"/>
	
		<line fill="none" stroke="#000000" stroke-width="4" stroke-miterlimit="10" x1="522.854" y1="360.052" x2="630.813" y2="414.504"/>
	<path fill="#FFFFFF" stroke="#000000" stroke-width="4" stroke-miterlimit="10" d="M518.87,243.93
		c0-35.476,27.76-64.23,61.994-64.23c20.168,0,61.996,13.794,61.996,64.23c0,35.475-27.76,64.229-61.996,64.229
		C546.63,308.159,518.87,279.404,518.87,243.93z"/>
	<g>
		<path d="M78.608,689.877H56.935h-4.835v-86.581h6.371h20.479c13.69,0,24.006,3.604,30.946,10.809
			c6.75,6.946,10.126,16.976,10.126,30.086c0,14.413-3.792,25.704-11.377,33.874C101.286,685.939,91.274,689.877,78.608,689.877z
			 M99.03,619.57c-2.579-2.683-5.793-4.615-9.642-5.797C85.539,612.591,81.196,612,76.361,612c-4.835,0-8.675,0.349-11.519,1.045
			v66.805c2.995,0.579,7.907,0.868,14.733,0.868c12.97,0,21.369-6.266,25.2-18.797c1.365-4.391,2.048-9.709,2.048-15.956
			s-0.654-11.537-1.962-15.871C103.552,625.761,101.609,622.253,99.03,619.57z"/>
		<path d="M157.907,689.934c-4.665,0-8.798-0.936-12.401-2.808c-10.164-5.167-15.246-15.331-15.246-30.493
			c0-10.521,2.882-18.664,8.647-24.43c5.384-5.391,12.363-8.087,20.934-8.087c9.784,0,17.16,3.427,22.128,10.277
			c4.247,5.878,6.371,13.702,6.371,23.474c0,10.146-2.901,18.141-8.704,23.979C174.327,687.239,167.084,689.934,157.907,689.934z
			 M159.272,681.06c5.347,0,9.415-2.003,12.202-6.008c2.788-4.005,4.181-9.753,4.181-17.244c0-11.325-2.958-18.89-8.874-22.691
			c-2.125-1.341-4.685-2.012-7.68-2.012c-5.233,0-9.235,1.956-12.003,5.869c-2.769,3.912-4.153,9.539-4.153,16.879
			c0,7.229,1.384,13.238,4.153,18.024C149.866,678.666,153.925,681.06,159.272,681.06z"/>
		<path d="M205.008,595.958h12.515v93.919h-12.515V595.958z"/>
		<path d="M261.781,689.934c-4.665,0-8.798-0.936-12.401-2.808c-10.164-5.167-15.245-15.331-15.245-30.493
			c0-10.521,2.881-18.664,8.646-24.43c5.384-5.391,12.363-8.087,20.934-8.087c9.784,0,17.16,3.427,22.128,10.277
			c4.247,5.878,6.372,13.702,6.372,23.474c0,10.146-2.901,18.141-8.704,23.979C278.201,687.239,270.958,689.934,261.781,689.934z
			 M263.146,681.06c5.347,0,9.415-2.003,12.202-6.008c2.787-4.005,4.181-9.753,4.181-17.244c0-11.325-2.958-18.89-8.875-22.691
			c-2.125-1.341-4.684-2.012-7.68-2.012c-5.233,0-9.235,1.956-12.003,5.869c-2.769,3.912-4.152,9.539-4.152,16.879
			c0,7.229,1.384,13.238,4.152,18.024C253.74,678.666,257.799,681.06,263.146,681.06z"/>
		<path d="M333.912,635.096c-5.424,0-10.146,2.039-14.165,6.12v48.661h-12.515v-65.761h10.524l0.796,7.993
			c2.503-3.197,6.542-5.586,12.117-7.166c1.82-0.552,3.944-0.827,6.372-0.827c2.426,0,4.228,0,5.404,0v13.291
			C340.397,635.866,337.553,635.096,333.912,635.096z"/>
		<path d="M427.205,607.202c-2.275-0.821-4.816-1.232-7.623-1.232s-4.77,0.224-5.887,0.669c-1.119,0.447-2.098,1.116-2.93,2.009
			c-1.746,1.852-2.617,4.545-2.617,8.082v7.387h16.041v9.443h-16.041v56.317h-12.516V633.56h-9.841v-6.94l9.841-2.503v-5.144
			c0-10.391,4.246-17.387,12.743-20.988c3.222-1.352,6.608-2.026,10.153-2.026c3.547,0,6.438,0.417,8.676,1.251V607.202z"/>
		<path d="M437.33,624.116h12.516v37.869c0,7.592,0.91,12.547,2.73,14.861c0.947,1.178,2.18,1.938,3.697,2.278
			c1.518,0.342,3.109,0.513,4.779,0.513c1.668,0,3.203-0.151,4.607-0.456c1.402-0.303,2.768-0.682,4.096-1.137
			c2.617-0.91,4.76-1.896,6.428-2.959v-50.97h12.516v65.817h-4.836c-2.238,0-3.697-0.228-4.381-0.683
			c-1.25-0.796-1.877-2.237-1.877-4.323v-1.593c-4.588,2.883-9.746,4.892-15.473,6.03c-1.934,0.379-4.371,0.568-7.309,0.568
			c-2.941,0-5.672-0.674-8.193-2.021s-4.484-3.254-5.887-5.723c-2.275-4.022-3.414-10.74-3.414-20.154V624.116z"/>
		<path d="M516.459,659.329c0.568,11.226,4.703,17.938,12.4,20.138c2.314,0.683,4.4,1.023,6.258,1.023
			c1.859,0,3.557-0.094,5.092-0.284c1.535-0.188,3.063-0.436,4.58-0.739c3.525-0.758,6.086-1.593,7.68-2.503l2.389,7.167
			c-3.148,2.579-8.42,4.362-15.814,5.348c-2.125,0.304-4.152,0.455-6.086,0.455c-9.18,0-16.27-2.92-21.275-8.761
			c-4.969-5.765-7.453-13.852-7.453-24.26c0-9.622,2.445-17.371,7.338-23.25c5.309-6.363,12.629-9.547,21.959-9.547
			c6.637,0,12.059,1.963,16.27,5.887c4.625,4.407,7.053,10.405,7.281,17.995c0,5.629-0.209,9.406-0.627,11.331H516.459z
			 M545.414,648.634c0-10.428-4.305-15.643-12.912-15.643c-9.141,0-14.393,6.011-15.758,18.032h28.613
			C545.395,650.228,545.414,649.431,545.414,648.634z"/>
		<path d="M598.83,635.096c-5.424,0-10.145,2.039-14.164,6.12v48.661H572.15v-65.761h10.523l0.797,7.993
			c2.504-3.197,6.543-5.586,12.117-7.166c1.82-0.552,3.943-0.827,6.371-0.827c2.426,0,4.229,0,5.404,0v13.291
			C605.314,635.866,602.471,635.096,598.83,635.096z"/>
		<path d="M622.152,633.56h-8.418v-6.77c1.402-0.415,2.635-0.765,3.697-1.049c1.063-0.283,1.973-0.595,2.73-0.936
			c1.518-0.719,2.561-1.823,3.129-3.317c0.568-1.492,1.146-3.23,1.734-5.216c0.588-1.983,1.281-4.281,2.076-6.89h7.51v14.733h18.316
			v9.443h-18.316v32.857c0,6.111,0.342,9.775,1.023,10.989c0.684,1.215,1.488,1.937,2.418,2.164c0.928,0.228,1.99,0.341,3.186,0.341
			s2.322-0.075,3.385-0.228c1.063-0.15,2.105-0.341,3.129-0.568c2.389-0.53,4.096-1.081,5.119-1.649l2.162,7.178
			c-3.072,2.275-7.357,3.887-12.855,4.835c-1.746,0.304-3.547,0.455-5.404,0.455c-1.859,0-3.697-0.228-5.518-0.684
			c-1.82-0.455-3.414-1.291-4.779-2.506c-2.883-2.618-4.324-7.041-4.324-13.268V633.56z"/>
		<path d="M675.285,659.329c0.568,11.226,4.701,17.938,12.4,20.138c2.313,0.683,4.398,1.023,6.258,1.023
			c1.857,0,3.555-0.094,5.092-0.284c1.535-0.188,3.061-0.436,4.578-0.739c3.527-0.758,6.088-1.593,7.68-2.503l2.391,7.167
			c-3.148,2.579-8.42,4.362-15.814,5.348c-2.125,0.304-4.154,0.455-6.088,0.455c-9.178,0-16.27-2.92-21.275-8.761
			c-4.969-5.765-7.451-13.852-7.451-24.26c0-9.622,2.445-17.371,7.338-23.25c5.309-6.363,12.629-9.547,21.957-9.547
			c6.637,0,12.061,1.963,16.27,5.887c4.627,4.407,7.055,10.405,7.281,17.995c0,5.629-0.209,9.406-0.625,11.331H675.285z
			 M704.24,648.634c0-10.428-4.305-15.643-12.914-15.643c-9.141,0-14.393,6.011-15.758,18.032h28.615
			C704.221,650.228,704.24,649.431,704.24,648.634z"/>
	</g>
</g>
</svg>
