<?xml version="1.0" encoding="utf-8"?>
<!-- Generator: Adobe Illustrator 16.0.0, SVG Export Plug-In . SVG Version: 6.00 Build 0)  -->
<!DOCTYPE svg PUBLIC "-//W3C//DTD SVG 1.1//EN" "http://www.w3.org/Graphics/SVG/1.1/DTD/svg11.dtd">
<svg version="1.1" xmlns="http://www.w3.org/2000/svg" xmlns:xlink="http://www.w3.org/1999/xlink" x="0px" y="0px" width="768px"
	 height="768px" viewBox="0 0 768 768" enable-background="new 0 0 768 768" xml:space="preserve">
<g id="Capa_2">
	<rect x="10" y="10" fill="#29ABE2" stroke="#0071BC" stroke-width="20" stroke-miterlimit="10" width="748" height="748"/>
</g>
<g id="Capa_5">
	<path fill="#FFFFFF" stroke="#000000" stroke-width="4" stroke-miterlimit="10" d="M172.129,580H585V134H358.518l3.064,43.449
		l16.905,239.461c0,0-96.242-34.671-153.937,7.489c-57.693,42.16-63.989,83.819-62.406,104.843
		C163.971,553.507,172.129,580,172.129,580z"/>
	
		<line fill="none" stroke="#000000" stroke-width="4" stroke-miterlimit="10" x1="584.846" y1="246.055" x2="361.582" y2="177.449"/>
	
		<line fill="none" stroke="#000000" stroke-width="4" stroke-miterlimit="10" x1="584.846" y1="290.433" x2="370.812" y2="308.185"/>
	<line fill="none" stroke="#000000" stroke-width="4" stroke-miterlimit="10" x1="378.487" y1="416.91" x2="584.846" y2="580"/>
	<line fill="none" stroke="#000000" stroke-width="4" stroke-miterlimit="10" x1="584.846" y1="434.66" x2="468.224" y2="486.871"/>
	<line fill="none" stroke="#000000" stroke-width="4" stroke-miterlimit="10" x1="361.582" y1="413.14" x2="390.692" y2="580"/>
	<path fill="none" stroke="#000000" stroke-width="4" stroke-miterlimit="10" d="M290.309,403.717
		C290.062,403.781,273.092,580,273.092,580"/>
	<line fill="#FFFFFF" stroke="#000000" stroke-width="4" stroke-miterlimit="10" x1="189.103" y1="456.98" x2="230.932" y2="580"/>
	<rect x="107.957" y="591.08" fill="none" width="565.472" height="118.494"/>
	<text transform="matrix(1 0 0 1 107.9565 691.1475)" font-family="'MerriweatherSans-Regular'" font-size="124">Fracturas</text>
</g>
</svg>
