<?xml version="1.0" encoding="utf-8"?>
<!-- Generator: Adobe Illustrator 16.0.0, SVG Export Plug-In . SVG Version: 6.00 Build 0)  -->
<!DOCTYPE svg PUBLIC "-//W3C//DTD SVG 1.1//EN" "http://www.w3.org/Graphics/SVG/1.1/DTD/svg11.dtd">
<svg version="1.1" xmlns="http://www.w3.org/2000/svg" xmlns:xlink="http://www.w3.org/1999/xlink" x="0px" y="0px" width="768px"
	 height="768px" viewBox="0 0 768 768" enable-background="new 0 0 768 768" xml:space="preserve">
<g id="Capa_1">
	<rect x="8" y="10" fill="#29ABE2" stroke="#0071BC" stroke-width="20" stroke-miterlimit="10" width="749" height="748"/>
</g>
<g id="Capa_4">
	<path fill="#1B4406" stroke="#000000" stroke-width="4" stroke-miterlimit="10" d="M489.47,132H488v-12h1v-8h33v7.83l1.432,0.255
		L523.398,132h-0.652l1.957,76.454c0,0-0.42,11.637,4.434,15.747c6.447,5.459,20.198,18.35,21.014,32.048
		c0.915,15.362,0,70.442,0,70.442l-1.305,116.78c0,0,1.565,76.636,0.326,88.737c-0.76,7.42-9.787,10.195-43.064,9.775
		c-41.476-0.522-42.412-7.504-43.717-12.071c-1.305-4.568,0-90.37,0-90.37l0.327-113.097c0,0-2.101-51.776,1.982-70.144
		c1.306-5.874,5.478-20.132,18.734-30.442c4.404-3.426,3.867-6.973,4.476-17.723C488.039,205.856,489.47,132,489.47,132z"/>
	<path fill="#5E2131" stroke="#000000" stroke-width="4" stroke-miterlimit="10" d="M357.747,276H356v-7h1v-6h42v5.497l2.341-0.188
		l0.438,7.691h-0.849l2.541,52.02c0,0-0.546,8.043,5.753,10.819c8.367,3.688,26.212,12.488,27.271,21.745
		c1.187,10.379,0,47.642,0,47.642l-1.693,78.928c0,0,2.032,51.793,0.423,59.971c-0.985,5.014-12.7,6.895-55.886,6.611
		c-53.825-0.354-55.04-5.068-56.733-8.154c-1.694-3.086,0-61.061,0-61.061l0.423-76.417c0,0-2.726-34.984,2.573-47.395
		c1.695-3.968,7.108-13.603,24.313-20.569c5.716-2.315,5.019-5.072,5.809-12.336C355.891,326.264,357.747,276,357.747,276z"/>
</g>
<g id="Capa_6">
	<path fill="#777243" stroke="#000000" stroke-width="4" stroke-miterlimit="10" d="M201.311,359.052c0,0,84.698-4.815,90.444-0.385
		l-0.315,21.83l-1.305,13.05l-0.419,8.482L303,408.385v17.316l-2.832,2.013l2.277,125.646c0,0-108.429,0.402-109.66,0
		s-0.456-126.049-0.456-126.049l-3.33-2.818v-14.9l14.354-7.236l0.008-6.858L201.311,359.052z"/>
	<path fill="#FFFFFF" stroke="#000000" stroke-width="4" stroke-miterlimit="10" d="M192.124,463.496
		c0,0,108.451,0.063,108.451,0.074S301.18,493,301.18,493H191.936L192.124,463.496z"/>
	<path fill="#FFFFFF" stroke="#000000" stroke-width="4" stroke-miterlimit="10" d="M322.555,411.486
		c0,0,113.084-0.015,113.084-0.002c0,0.014-0.51,35.583-0.51,35.583l-112.92-0.809L322.555,411.486z"/>
	<path fill="#FFFFFF" stroke="#000000" stroke-width="4" stroke-miterlimit="10" d="M462.215,309.749c0,0,86.895-0.003,86.895,0.041
		S549.594,423,549.594,423h-87.529L462.215,309.749z"/>
</g>
<g id="Capa_7">
	<g>
		<path d="M87.445,590.335h11.379v76.633H87.445V590.335z"/>
		<path d="M118.108,608.764h9.869l0.05,6.767c4.196-2.792,8.962-4.803,14.299-6.037c2.216-0.486,4.531-0.729,6.949-0.729
			c2.417,0,4.665,0.361,6.747,1.081c2.081,0.721,3.809,1.972,5.187,3.747c2.584,3.389,3.876,9.274,3.876,17.658v35.718h-11.077
			v-35.762c0-5.03-0.672-8.501-2.014-10.413c-1.343-1.944-3.76-2.916-7.25-2.916c-3.793,0-7.771,1.182-11.933,3.545
			c-1.276,0.713-2.484,1.538-3.625,2.476v43.07h-11.078V608.764z"/>
		<path d="M185.125,617.121h-7.452v-5.992c1.241-0.367,2.333-0.677,3.273-0.928c0.939-0.251,1.745-0.526,2.417-0.828
			c1.342-0.636,2.266-1.613,2.769-2.936c0.504-1.321,1.015-2.861,1.536-4.617c0.52-1.756,1.133-3.789,1.837-6.098h6.646v13.041
			h16.213v8.357h-16.213v29.082c0,5.409,0.302,8.653,0.907,9.728c0.604,1.076,1.316,1.714,2.14,1.915
			c0.822,0.202,1.762,0.302,2.819,0.302c1.058,0,2.056-0.065,2.996-0.201c0.939-0.133,1.863-0.302,2.769-0.504
			c2.115-0.469,3.625-0.956,4.532-1.46l1.913,6.354c-2.719,2.014-6.513,3.44-11.379,4.279c-1.544,0.27-3.139,0.403-4.784,0.403
			s-3.272-0.201-4.884-0.604s-3.021-1.143-4.229-2.219c-2.551-2.317-3.827-6.231-3.827-11.743V617.121z"/>
		<path d="M245.747,667.019c-4.129,0-7.788-0.828-10.976-2.484c-8.997-4.573-13.494-13.569-13.494-26.991
			c0-9.312,2.551-16.519,7.653-21.622c4.766-4.771,10.943-7.157,18.529-7.157c8.66,0,15.188,3.031,19.586,9.096
			c3.759,5.202,5.639,12.128,5.639,20.777c0,8.98-2.568,16.056-7.704,21.224C260.281,664.633,253.87,667.019,245.747,667.019z
			 M246.956,659.164c4.733,0,8.333-1.772,10.8-5.318c2.467-3.545,3.701-8.632,3.701-15.263c0-10.023-2.618-16.719-7.855-20.083
			c-1.88-1.188-4.146-1.781-6.797-1.781c-4.632,0-8.175,1.731-10.624,5.194c-2.451,3.463-3.676,8.443-3.676,14.939
			c0,6.399,1.225,11.718,3.676,15.954C238.63,657.045,242.223,659.164,246.956,659.164z"/>
		<path d="M300.226,637.865l-20.342-29.102h12.588l12.588,19.757l1.259,2.195l1.057-2.3l12.638-19.652h12.437l-20.392,28.9
			l20.845,29.304h-12.84l-12.587-19.082l-1.712-2.77l-1.41,2.92l-11.681,18.932h-12.638L300.226,637.865z"/>
		<path d="M355.184,596.302c-0.755,0.688-1.628,1.225-2.618,1.61c-0.99,0.387-1.981,0.58-2.97,0.58c-0.991,0-1.914-0.16-2.77-0.479
			s-1.62-0.781-2.291-1.385c-1.41-1.275-2.115-2.693-2.115-4.255c0-1.561,0.234-2.82,0.705-3.776c0.47-0.957,1.09-1.787,1.863-2.493
			c1.644-1.51,3.29-2.266,4.935-2.266c1.644,0,2.912,0.177,3.801,0.529c0.889,0.353,1.619,0.849,2.19,1.485
			c1.174,1.209,1.763,2.602,1.763,4.179c0,1.578-0.227,2.846-0.68,3.802C356.543,594.791,355.939,595.613,355.184,596.302z
			 M344.333,608.764h11.077v58.204h-11.077V608.764z"/>
		<path d="M410.091,620.956c-2.987-2.421-7.284-3.634-12.891-3.634c-4.397,0-8.072,1.483-11.025,4.451
			c-3.66,3.725-5.488,9.164-5.488,16.317c0,6.165,1.485,11.134,4.456,14.909c2.971,3.774,6.889,5.66,11.757,5.66
			c3.827,0,7.585-0.716,11.278-2.146c0.973-0.358,1.778-0.732,2.417-1.122l2.266,6.188c-3.928,3.626-9.802,5.438-17.622,5.438
			c-7.855,0-14.083-2.733-18.681-8.201c-4.364-5.169-6.545-11.946-6.545-20.331c0-8.714,2.316-15.756,6.948-21.125
			c4.934-5.731,11.866-8.598,20.794-8.598c6.31,0,11.01,0.99,14.099,2.971L410.091,620.956z"/>
		<path d="M425.272,662.631c-1.562-1.42-2.779-3.147-3.651-5.184s-1.309-4.645-1.309-7.826s1.007-6.107,3.021-8.776
			c4.229-5.61,12.487-8.417,24.772-8.417c1.879,0,3.626,0,5.237,0v-5.809c0-3.873-1.008-6.483-3.021-7.83
			c-1.679-1.111-4.75-1.668-9.214-1.668c-3.861,0-8.107,0.911-12.739,2.73c-1.208,0.463-2.132,0.927-2.77,1.389l-2.719-7.19
			c2.886-1.813,7.67-3.356,14.35-4.632c2.282-0.437,4.742-0.654,7.377-0.654s5.202,0.239,7.703,0.72
			c2.501,0.479,4.657,1.383,6.47,2.706c3.76,2.781,5.64,7.648,5.64,14.602v40.228h-4.531c-2.149,0-3.541-0.201-4.18-0.604
			c-1.142-0.771-1.711-2.316-1.711-4.633v-0.403c-2.754,2.518-6.462,4.23-11.128,5.136c-1.61,0.336-3.483,0.504-5.614,0.504
			s-4.271-0.376-6.42-1.129C428.687,665.138,426.833,664.051,425.272,662.631z M431.238,649.899c0,5.908,3.306,8.862,9.919,8.862
			c3.658,0,7.149-0.958,10.473-2.871c0.839-0.469,1.41-0.871,1.713-1.207v-16.063c-3.928,0-7.268,0.336-10.021,1.007
			s-4.624,1.242-5.614,1.712s-1.871,0.966-2.643,1.485c-0.772,0.521-1.444,1.133-2.015,1.838
			C431.842,646.106,431.238,647.853,431.238,649.899z"/>
		<path d="M517.488,620.956c-2.987-2.421-7.284-3.634-12.89-3.634c-4.397,0-8.072,1.483-11.027,4.451
			c-3.659,3.725-5.487,9.164-5.487,16.317c0,6.165,1.485,11.134,4.456,14.909c2.97,3.774,6.889,5.66,11.757,5.66
			c3.826,0,7.586-0.716,11.278-2.146c0.973-0.358,1.778-0.732,2.417-1.122l2.266,6.188c-3.928,3.626-9.802,5.438-17.622,5.438
			c-7.855,0-14.082-2.733-18.681-8.201c-4.364-5.169-6.546-11.946-6.546-20.331c0-8.714,2.316-15.756,6.949-21.125
			c4.934-5.731,11.865-8.598,20.794-8.598c6.31,0,11.01,0.99,14.099,2.971L517.488,620.956z"/>
		<path d="M543.545,596.302c-0.755,0.688-1.628,1.225-2.619,1.61c-0.99,0.387-1.979,0.58-2.97,0.58c-0.991,0-1.914-0.16-2.77-0.479
			s-1.62-0.781-2.291-1.385c-1.41-1.275-2.115-2.693-2.115-4.255c0-1.561,0.235-2.82,0.705-3.776
			c0.47-0.957,1.092-1.787,1.863-2.493c1.645-1.51,3.289-2.266,4.936-2.266c1.644,0,2.91,0.177,3.8,0.529s1.62,0.849,2.191,1.485
			c1.174,1.209,1.762,2.602,1.762,4.179c0,1.578-0.227,2.846-0.68,3.802C544.904,594.791,544.301,595.613,543.545,596.302z
			 M532.694,608.764h11.077v58.204h-11.077V608.764z"/>
		<path d="M582.793,667.019c-4.129,0-7.788-0.828-10.977-2.484c-8.996-4.573-13.493-13.569-13.493-26.991
			c0-9.312,2.551-16.519,7.652-21.622c4.767-4.771,10.943-7.157,18.529-7.157c8.66,0,15.188,3.031,19.587,9.096
			c3.759,5.202,5.639,12.128,5.639,20.777c0,8.98-2.567,16.056-7.704,21.224C597.327,664.633,590.916,667.019,582.793,667.019z
			 M584.002,659.164c4.732,0,8.333-1.772,10.8-5.318c2.467-3.545,3.701-8.632,3.701-15.263c0-10.023-2.618-16.719-7.855-20.083
			c-1.88-1.188-4.146-1.781-6.797-1.781c-4.632,0-8.174,1.731-10.624,5.194c-2.451,3.463-3.676,8.443-3.676,14.939
			c0,6.399,1.225,11.718,3.676,15.954C575.677,657.045,579.269,659.164,584.002,659.164z M577.96,597.283
			c8.156-8.929,13.828-15.625,17.018-20.09l7.854,6.797c-1.142,2.015-4.196,5.338-9.164,9.97c-4.9,4.532-8.274,7.15-10.12,7.854
			L577.96,597.283z"/>
		<path d="M623.426,608.764h9.869l0.05,6.767c4.195-2.792,8.963-4.803,14.3-6.037c2.215-0.486,4.531-0.729,6.948-0.729
			s4.665,0.361,6.747,1.081c2.08,0.721,3.81,1.972,5.186,3.747c2.584,3.389,3.878,9.274,3.878,17.658v35.718h-11.078v-35.762
			c0-5.03-0.671-8.501-2.014-10.413c-1.343-1.944-3.76-2.916-7.25-2.916c-3.793,0-7.771,1.182-11.934,3.545
			c-1.276,0.713-2.483,1.538-3.625,2.476v43.07h-11.077V608.764z"/>
	</g>
</g>
</svg>
