<?xml version="1.0" encoding="utf-8"?>
<!-- Generator: Adobe Illustrator 16.0.0, SVG Export Plug-In . SVG Version: 6.00 Build 0)  -->
<!DOCTYPE svg PUBLIC "-//W3C//DTD SVG 1.1//EN" "http://www.w3.org/Graphics/SVG/1.1/DTD/svg11.dtd">
<svg version="1.1" xmlns="http://www.w3.org/2000/svg" xmlns:xlink="http://www.w3.org/1999/xlink" x="0px" y="0px" width="768px"
	 height="768px" viewBox="0 0 768 768" enable-background="new 0 0 768 768" xml:space="preserve">
<g id="Capa_1">
	<rect x="8" y="8" fill="#66D333" stroke="#38771B" stroke-width="20" stroke-miterlimit="10" width="750" height="752"/>
</g>
<g id="Capa_4">
	<path fill="#3B3BB7" stroke="#000000" stroke-width="4" stroke-miterlimit="10" d="M183.983,265.131
		c-6.714-37.845-8.039-72.952,52.46-108.539c60.498-35.587,91.635-46.263,120.105-48.932c28.469-2.669,59.606-1.78,75.621,20.462
		c16.014,22.242,36.764,55.704,55.159,102.313c16.911,42.841,37.111,111.208,38.002,128.11c0.893,16.902,6.48,49.822-16.649,71.174
		c-23.13,21.353-103.202,59.606-103.202,59.606s-47.15,15.123-79.178-8.006c-32.027-23.13-65.833-65.837-72.063-74.732
		c-7.23-10.325-29.354-39.36-46.248-71.179C194.998,310.943,188.719,291.831,183.983,265.131z"/>
	<path fill="#FCFCFC" stroke="#000000" stroke-width="4" stroke-miterlimit="10" d="M423.314,480.526l65.273-36.112
		c0,0,15.644,17.307,10.306,27.982c-3.995,7.994-41.815,26.713-53.38,27.605C433.949,500.893,433.949,500.893,423.314,480.526z"/>
	<path fill="#FCFCFC" stroke="#000000" stroke-width="4" stroke-miterlimit="10" d="M522.025,593.417
		c4.563,3.706,12.848-2.683,20.464-11.565c5.338-6.227,0.424-8.992-50.083-103.233l-33.393,17.49
		C459.014,496.108,497.191,573.248,522.025,593.417z"/>
	<path fill="#FCFCFC" stroke="#000000" stroke-width="4" stroke-miterlimit="10" d="M289.823,352.317
		c0,0,145.907-81.848,154.802-88.965c8.896-7.117,6.227-32.028,0-47.151c-6.228-15.125-25.801-74.733-87.188-63.167
		c-61.387,11.566-120.209,56.603-130.922,78.027c-11.567,23.133-8.722,69.33,12.271,92.852
		C263.208,351.28,289.823,352.317,289.823,352.317z"/>
	<path fill="#160B3D" stroke="#000000" stroke-width="4" stroke-miterlimit="10" d="M301.388,370.111
		c-5.575,5.112-24.91,32.918,7.119,24.021c53.351-14.819,122.039-60.029,141.832-77.511c4.598-4.061,23.646-27.471-13.72-20.353
		C419.215,299.584,339.435,335.23,301.388,370.111z"/>
	
		<line fill="none" stroke="#000000" stroke-width="4" stroke-miterlimit="10" x1="363.582" y1="328.281" x2="383.223" y2="361.386"/>
</g>
<g id="Capa_5">
	<g>
		<path d="M168.626,680.835h-22.419h-5.001v-89.558h6.59h21.183c14.161,0,24.832,3.727,32.01,11.18
			c6.981,7.186,10.474,17.559,10.474,31.121c0,14.908-3.923,26.587-11.769,35.038C192.083,676.763,181.728,680.835,168.626,680.835z
			 M189.75,608.11c-2.668-2.774-5.993-4.773-9.974-5.996c-3.981-1.223-8.473-1.834-13.475-1.834s-8.974,0.36-11.916,1.081v69.102
			c3.098,0.6,8.179,0.898,15.24,0.898c13.416,0,22.104-6.481,26.067-19.443c1.412-4.542,2.118-10.043,2.118-16.505
			s-0.677-11.935-2.03-16.417C194.428,614.514,192.417,610.886,189.75,608.11z"/>
		<path d="M240.442,598.25c-0.882,0.805-1.903,1.432-3.06,1.883c-1.157,0.452-2.315,0.677-3.472,0.677
			c-1.157,0-2.236-0.187-3.236-0.559c-1-0.372-1.893-0.912-2.677-1.618c-1.647-1.49-2.471-3.148-2.471-4.973
			s0.273-3.295,0.824-4.413c0.549-1.118,1.274-2.089,2.177-2.913c1.921-1.765,3.844-2.647,5.766-2.647
			c1.921,0,3.403,0.206,4.443,0.618c1.039,0.411,1.892,0.99,2.56,1.735c1.373,1.412,2.06,3.041,2.06,4.884
			c0,1.845-0.265,3.325-0.794,4.442C242.031,596.484,241.325,597.446,240.442,598.25z M227.762,612.813h12.945v68.021h-12.945
			V612.813z"/>
		<path d="M263.391,675.766c-1.824-1.659-3.247-3.679-4.266-6.058c-1.021-2.38-1.53-5.428-1.53-9.146
			c0-3.718,1.177-7.137,3.53-10.257c4.943-6.557,14.593-9.836,28.95-9.836c2.197,0,4.237,0,6.12,0v-6.788
			c0-4.526-1.177-7.577-3.53-9.151c-1.962-1.298-5.552-1.948-10.768-1.948c-4.511,0-9.474,1.063-14.887,3.19
			c-1.412,0.541-2.492,1.083-3.236,1.623l-3.177-8.402c3.374-2.119,8.963-3.923,16.77-5.414c2.667-0.51,5.54-0.765,8.62-0.765
			c3.079,0,6.08,0.28,9.003,0.842c2.922,0.561,5.443,1.615,7.561,3.163c4.393,3.25,6.59,8.938,6.59,17.063v47.012h-5.296
			c-2.511,0-4.139-0.235-4.884-0.706c-1.334-0.901-2-2.707-2-5.413v-0.472c-3.217,2.942-7.552,4.943-13.004,6.002
			c-1.883,0.394-4.07,0.589-6.561,0.589c-2.492,0-4.993-0.439-7.502-1.319C267.382,678.695,265.215,677.426,263.391,675.766z
			 M270.364,660.888c0,6.904,3.863,10.355,11.592,10.355c4.275,0,8.356-1.118,12.239-3.354c0.98-0.549,1.647-1.02,2-1.412v-18.771
			c-4.589,0-8.494,0.393-11.709,1.177c-3.217,0.784-5.404,1.452-6.561,2c-1.157,0.55-2.187,1.129-3.089,1.736
			c-0.903,0.608-1.687,1.324-2.354,2.147C271.07,656.455,270.364,658.494,270.364,660.888z"/>
		<path d="M340.856,620.228c4.943-4.942,11.082-7.414,18.417-7.414c7.532,0,13.71,2.591,18.536,7.771
			c5.295,5.646,7.943,13.571,7.943,23.776c0,10.786-3.08,19.562-9.238,26.327c-6.276,6.805-14.475,10.206-24.596,10.206
			c-6.708,0-13.416-1.118-20.124-3.354c-1.647-0.548-2.786-1.039-3.413-1.471v-92.382h12.945v27.333L340.856,620.228z
			 M355.685,622.993c-4.864,0-9.65,1.948-14.357,5.843v40.245c2.236,1.521,6.257,2.28,12.063,2.28c5.61,0,10.141-2.152,13.593-6.458
			c3.727-4.649,5.59-11.105,5.59-19.369C372.572,630.508,366.943,622.993,355.685,622.993z"/>
		<path d="M409.82,649.236c0.588,11.612,4.862,18.556,12.827,20.83c2.392,0.706,4.55,1.06,6.473,1.06
			c1.921,0,3.677-0.098,5.266-0.294s3.168-0.451,4.737-0.766c3.648-0.784,6.296-1.647,7.944-2.589l2.471,7.414
			c-3.257,2.668-8.708,4.512-16.357,5.531c-2.198,0.314-4.296,0.471-6.297,0.471c-9.494,0-16.828-3.02-22.007-9.062
			c-5.14-5.963-7.708-14.328-7.708-25.095c0-9.952,2.53-17.969,7.591-24.049c5.491-6.583,13.063-9.875,22.713-9.875
			c6.863,0,12.475,2.03,16.829,6.089c4.785,4.559,7.296,10.763,7.531,18.614c0,5.821-0.217,9.729-0.647,11.72H409.82z
			 M439.771,638.173c0-10.786-4.453-16.181-13.357-16.181c-9.454,0-14.887,6.219-16.299,18.653h29.598
			C439.75,639.822,439.771,638.998,439.771,638.173z"/>
		<path d="M470.957,622.581h-8.709v-7.002c1.451-0.43,2.726-0.792,3.825-1.085c1.098-0.293,2.039-0.616,2.824-0.968
			c1.568-0.743,2.647-1.886,3.236-3.431c0.588-1.545,1.187-3.343,1.795-5.396c0.607-2.053,1.323-4.429,2.147-7.127h7.767v15.24
			h18.947v9.768h-18.947v33.987c0,6.321,0.354,10.111,1.06,11.366c0.706,1.258,1.539,2.004,2.501,2.239
			c0.96,0.235,2.06,0.354,3.295,0.354s2.402-0.078,3.501-0.236c1.099-0.155,2.178-0.353,3.236-0.588
			c2.472-0.549,4.236-1.118,5.296-1.706l2.236,7.424c-3.178,2.354-7.611,4.021-13.299,5.002c-1.805,0.314-3.668,0.471-5.59,0.471
			c-1.923,0-3.824-0.235-5.708-0.707c-1.883-0.471-3.53-1.335-4.942-2.592c-2.982-2.709-4.472-7.283-4.472-13.724V622.581z"/>
		<path d="M525.915,649.236c0.589,11.612,4.864,18.556,12.828,20.83c2.393,0.706,4.55,1.06,6.473,1.06
			c1.922,0,3.677-0.098,5.266-0.294s3.167-0.451,4.737-0.766c3.648-0.784,6.296-1.647,7.943-2.589l2.472,7.414
			c-3.257,2.668-8.709,4.512-16.358,5.531c-2.197,0.314-4.295,0.471-6.296,0.471c-9.493,0-16.829-3.02-22.007-9.062
			c-5.14-5.963-7.708-14.328-7.708-25.095c0-9.952,2.529-17.969,7.59-24.049c5.491-6.583,13.063-9.875,22.713-9.875
			c6.865,0,12.475,2.03,16.829,6.089c4.785,4.559,7.297,10.763,7.532,18.614c0,5.821-0.217,9.729-0.647,11.72H525.915z
			 M555.866,638.173c0-10.786-4.453-16.181-13.357-16.181c-9.455,0-14.887,6.219-16.3,18.653h29.598
			C555.846,639.822,555.866,638.998,555.866,638.173z"/>
		<path d="M582.168,666.628c2.667,1.71,6.845,3.06,12.533,4.047c2.314,0.419,4.943,0.628,7.885,0.628
			c2.942,0,5.443-0.706,7.503-2.116s3.089-3.411,3.089-6c0-3.438-2.824-6.53-8.473-9.274c-1.647-0.811-3.619-1.7-5.914-2.666
			s-4.601-2.106-6.914-3.421c-7.493-4.366-11.238-10.201-11.238-17.506c0-5.641,2.412-10.047,7.237-13.216
			c4.314-2.86,9.983-4.29,17.005-4.29c5.335,0,10.219,0.823,14.652,2.472c1.059,0.393,1.843,0.726,2.354,1l-2.118,10.326
			c-1.883-1.806-5.179-3.092-9.886-3.859c-1.491-0.271-3.021-0.406-4.59-0.406c-4.159,0-7.316,0.647-9.474,1.941
			c-2.158,1.295-3.236,2.88-3.236,4.753c0,1.876,0.284,3.373,0.854,4.494c0.568,1.121,1.422,2.145,2.56,3.071
			c1.843,1.585,4.462,3.054,7.855,4.406c3.393,1.354,6.256,2.638,8.591,3.855c2.334,1.217,4.462,2.638,6.385,4.26
			c4.275,3.711,6.413,8.135,6.413,13.275c0,5.951-2.138,10.531-6.413,13.738c-4.119,3.169-9.867,4.753-17.241,4.753
			c-6.748,0-12.729-1.02-17.946-3.06c-1.491-0.549-2.629-1.118-3.413-1.707L582.168,666.628z"/>
	</g>
</g>
</svg>
