<?xml version="1.0" encoding="utf-8"?>
<!-- Generator: Adobe Illustrator 16.0.0, SVG Export Plug-In . SVG Version: 6.00 Build 0)  -->
<!DOCTYPE svg PUBLIC "-//W3C//DTD SVG 1.1//EN" "http://www.w3.org/Graphics/SVG/1.1/DTD/svg11.dtd">
<svg version="1.1" xmlns="http://www.w3.org/2000/svg" xmlns:xlink="http://www.w3.org/1999/xlink" x="0px" y="0px" width="768px"
	 height="768px" viewBox="0 0 768 768" enable-background="new 0 0 768 768" xml:space="preserve">
<g id="Capa_1">
	<rect x="13" y="8" fill="#66D333" stroke="#38771B" stroke-width="20" stroke-miterlimit="10" width="752" height="752"/>
</g>
<g id="Capa_4">
	<path fill="#E8D99A" stroke="#000000" stroke-width="4" stroke-miterlimit="10" d="M284,0c0,0,8.379,99.118,21.314,161.667
		c12.935,62.548,34.206,145.967,10.944,219.93c-21.89,69.612-43.912,70.459-70.646,95.842
		c-22.97,21.808-72.642,79.689-13.932,171.497C290.389,740.743,258.389,767.988,293,768c17.912,0.006,107.17,0,107.17,0
		s-3.309-117.047,43.456-137.223s129.826-58.447,145.521-122.065c13.687-55.485,9.703-118.041-30.097-160.412
		c-39.801-42.373-81.328-72.115-95.525-79.693c-20.673-11.037,29.17-25.344,38.808-29.253C542.135,223.211,541,145,493,114
		c-35.555-22.962-91.908-76.286-104.104-87.515C377.516,16.004,370,0,370,0H284z"/>
</g>
<g id="Capa_5">
	<g>
		<path d="M62.292,648.635H41.901v-7.384h50.527v7.384H71.951v57.953h-9.659V648.635z"/>
		<path d="M122.478,665.248c-4.093,0-7.656,1.539-10.689,4.618v36.722h-9.444v-49.625h7.942l0.601,6.031
			c1.889-2.412,4.937-4.215,9.144-5.407c1.374-0.416,2.976-0.624,4.808-0.624c1.831,0,3.19,0,4.078,0v10.029
			C127.372,665.83,125.226,665.248,122.478,665.248z"/>
		<path d="M138.555,702.891c-1.33-1.211-2.368-2.684-3.112-4.42c-0.745-1.735-1.116-3.96-1.116-6.673
			c0-2.712,0.858-5.207,2.576-7.482c3.606-4.784,10.646-7.176,21.121-7.176c1.603,0,3.091,0,4.465,0v-4.953
			c0-3.303-0.859-5.527-2.576-6.677c-1.432-0.946-4.05-1.421-7.856-1.421c-3.292,0-6.912,0.776-10.861,2.327
			c-1.03,0.396-1.818,0.791-2.361,1.186l-2.318-6.132c2.46-1.545,6.539-2.86,12.234-3.949c1.946-0.371,4.042-0.558,6.289-0.558
			c2.247,0,4.436,0.205,6.568,0.614c2.131,0.409,3.971,1.179,5.516,2.308c3.205,2.371,4.808,6.521,4.808,12.448v34.298h-3.864
			c-1.832,0-3.02-0.172-3.563-0.516c-0.974-0.657-1.459-1.974-1.459-3.949v-0.343c-2.347,2.146-5.51,3.605-9.487,4.379
			c-1.374,0.286-2.97,0.429-4.787,0.429c-1.818,0-3.642-0.32-5.473-0.963C141.467,705.027,139.886,704.101,138.555,702.891z
			 M143.642,692.035c0,5.038,2.818,7.556,8.457,7.556c3.119,0,6.096-0.815,8.929-2.446c0.715-0.401,1.202-0.744,1.459-1.031v-13.694
			c-3.349,0-6.197,0.287-8.543,0.858c-2.347,0.573-3.943,1.061-4.786,1.461c-0.845,0.4-1.596,0.822-2.254,1.266
			c-0.659,0.444-1.231,0.967-1.717,1.566C144.157,688.802,143.642,690.29,143.642,692.035z"/>
		<path d="M195.07,662.372c3.606-3.606,8.084-5.409,13.437-5.409c5.495,0,10.002,1.891,13.522,5.669
			c3.864,4.119,5.795,9.9,5.795,17.347c0,7.868-2.247,14.271-6.74,19.206c-4.579,4.965-10.56,7.446-17.944,7.446
			c-4.894,0-9.788-0.815-14.682-2.446c-1.202-0.401-2.032-0.758-2.49-1.073v-67.398h9.444v19.941L195.07,662.372z M205.889,664.389
			c-3.549,0-7.041,1.423-10.475,4.264v29.361c1.631,1.109,4.564,1.664,8.8,1.664c4.092,0,7.397-1.571,9.917-4.712
			c2.718-3.393,4.078-8.103,4.078-14.132C218.209,669.872,214.102,664.389,205.889,664.389z"/>
		<path d="M240.252,702.891c-1.331-1.211-2.368-2.684-3.112-4.42c-0.745-1.735-1.116-3.96-1.116-6.673
			c0-2.712,0.858-5.207,2.576-7.482c3.606-4.784,10.646-7.176,21.121-7.176c1.603,0,3.091,0,4.465,0v-4.953
			c0-3.303-0.859-5.527-2.576-6.677c-1.432-0.946-4.05-1.421-7.856-1.421c-3.292,0-6.912,0.776-10.861,2.327
			c-1.03,0.396-1.817,0.791-2.361,1.186l-2.318-6.132c2.461-1.545,6.539-2.86,12.235-3.949c1.946-0.371,4.042-0.558,6.289-0.558
			c2.247,0,4.436,0.205,6.568,0.614c2.131,0.409,3.971,1.179,5.516,2.308c3.205,2.371,4.808,6.521,4.808,12.448v34.298h-3.864
			c-1.832,0-3.02-0.172-3.563-0.516c-0.974-0.657-1.459-1.974-1.459-3.949v-0.343c-2.347,2.146-5.51,3.605-9.487,4.379
			c-1.374,0.286-2.97,0.429-4.787,0.429c-1.818,0-3.642-0.32-5.474-0.963C243.164,705.027,241.583,704.101,240.252,702.891z
			 M245.34,692.035c0,5.038,2.818,7.556,8.457,7.556c3.119,0,6.096-0.815,8.929-2.446c0.715-0.401,1.202-0.744,1.46-1.031v-13.694
			c-3.349,0-6.197,0.287-8.543,0.858c-2.347,0.573-3.943,1.061-4.786,1.461c-0.845,0.4-1.596,0.822-2.254,1.266
			c-0.659,0.444-1.231,0.967-1.717,1.566C245.855,688.802,245.34,690.29,245.34,692.035z"/>
		<path d="M277.15,720.798c1.26,0.629,2.733,0.944,4.421,0.944c1.688,0,2.962-0.282,3.821-0.848
			c0.858-0.564,1.531-1.397,2.018-2.497c0.944-2.087,1.417-5.389,1.417-9.907v-51.527h9.444v47.781
			c0,12.268-2.891,19.717-8.671,22.351c-1.889,0.839-4.25,1.259-7.083,1.259c-2.833,0-4.621-0.188-5.366-0.559V720.798z
			 M297.949,646.338c-0.644,0.587-1.389,1.045-2.232,1.374c-0.845,0.329-1.689,0.493-2.533,0.493c-0.844,0-1.631-0.136-2.361-0.407
			c-0.73-0.271-1.381-0.665-1.954-1.181c-1.202-1.087-1.803-2.297-1.803-3.628c0-1.33,0.2-2.403,0.601-3.219
			c0.4-0.816,0.93-1.524,1.588-2.125c1.402-1.288,2.804-1.933,4.207-1.933c1.402,0,2.482,0.15,3.241,0.451
			c0.758,0.301,1.38,0.723,1.868,1.266c1.001,1.03,1.502,2.219,1.502,3.563c0,1.347-0.193,2.426-0.58,3.241
			C299.107,645.05,298.592,645.752,297.949,646.338z"/>
		<path d="M330.167,706.631c-3.52,0-6.64-0.706-9.358-2.118c-7.67-3.899-11.505-11.57-11.505-23.012
			c0-7.939,2.175-14.084,6.525-18.436c4.063-4.068,9.329-6.103,15.797-6.103c7.384,0,12.95,2.585,16.699,7.755
			c3.205,4.437,4.808,10.341,4.808,17.715c0,7.657-2.189,13.689-6.568,18.096C342.558,704.598,337.092,706.631,330.167,706.631z
			 M331.197,699.934c4.035,0,7.105-1.511,9.208-4.533c2.104-3.021,3.155-7.359,3.155-13.013c0-8.547-2.232-14.255-6.697-17.124
			c-1.603-1.012-3.535-1.518-5.795-1.518c-3.949,0-6.969,1.477-9.058,4.429c-2.09,2.953-3.134,7.198-3.134,12.737
			c0,5.456,1.044,9.99,3.134,13.603C324.099,698.128,327.162,699.934,331.197,699.934z"/>
		<path d="M422.42,701.136c-3.664,3.664-8.199,5.495-13.609,5.495c-5.465,0-9.959-1.893-13.479-5.678
			c-3.863-4.125-5.795-9.917-5.795-17.376c0-7.883,2.232-14.268,6.696-19.155c4.522-4.973,10.46-7.459,17.815-7.459
			c2.833,0,5.495,0.415,7.984,1.244l-0.129-2.597v-19.897h9.445v70.918h-4.078c-1.689,0-2.806-0.172-3.35-0.516
			c-1.002-0.6-1.502-1.688-1.502-3.262V701.136z M421.904,666.393c-1.631-1.707-4.564-2.561-8.801-2.561
			c-4.063,0-7.354,1.573-9.872,4.722c-2.72,3.4-4.079,8.011-4.079,13.829c0,11.215,4.092,16.822,12.277,16.822
			c3.606,0,7.098-1.275,10.475-3.826V666.393z"/>
		<path d="M451.869,683.536c0.43,8.472,3.549,13.537,9.359,15.196c1.744,0.515,3.319,0.773,4.721,0.773
			c1.402,0,2.684-0.071,3.844-0.216c1.157-0.143,2.311-0.328,3.455-0.558c2.661-0.572,4.593-1.202,5.794-1.89l1.804,5.41
			c-2.376,1.946-6.353,3.291-11.935,4.034c-1.603,0.23-3.134,0.344-4.592,0.344c-6.928,0-12.278-2.203-16.056-6.61
			c-3.75-4.351-5.625-10.453-5.625-18.308c0-7.262,1.847-13.109,5.539-17.545c4.007-4.803,9.529-7.205,16.57-7.205
			c5.007,0,9.101,1.48,12.278,4.442c3.491,3.325,5.323,7.853,5.494,13.58c0,4.247-0.158,7.098-0.473,8.551H451.869z
			 M473.719,675.465c0-7.869-3.247-11.805-9.743-11.805c-6.897,0-10.862,4.536-11.893,13.607h21.594
			C473.704,676.668,473.719,676.065,473.719,675.465z"/>
		<path d="M549.339,704.683c-3.021,1.299-6.182,1.948-9.486,1.948c-3.308,0-6.176-0.414-8.607-1.244l0.128,6.726v16.241h-9.444
			v-71.391h8.543v5.28c1.632-1.52,3.118-2.596,4.465-3.229c2.861-1.367,5.809-2.052,8.844-2.052c3.032,0,5.716,0.466,8.048,1.398
			s4.386,2.359,6.16,4.28c3.864,4.125,5.796,9.917,5.796,17.375c0,7.883-2.232,14.269-6.697,19.156
			C554.941,701.546,552.357,703.382,549.339,704.683z M541.848,663.702c-3.549,0-7.041,1.346-10.475,4.036v29.835
			c1.659,1.46,4.594,2.189,8.801,2.189c4.092,0,7.397-1.604,9.916-4.814c2.72-3.466,4.078-8.28,4.078-14.44
			C554.168,669.305,550.062,663.702,541.848,663.702z"/>
		<path d="M576.211,702.891c-1.329-1.211-2.367-2.684-3.111-4.42c-0.744-1.735-1.115-3.96-1.115-6.673
			c0-2.712,0.858-5.207,2.575-7.482c3.606-4.784,10.646-7.176,21.121-7.176c1.603,0,3.091,0,4.464,0v-4.953
			c0-3.303-0.858-5.527-2.575-6.677c-1.433-0.946-4.051-1.421-7.856-1.421c-3.292,0-6.911,0.776-10.86,2.327
			c-1.03,0.396-1.818,0.791-2.361,1.186l-2.319-6.132c2.461-1.545,6.54-2.86,12.236-3.949c1.945-0.371,4.041-0.558,6.288-0.558
			s4.437,0.205,6.569,0.614c2.131,0.409,3.971,1.179,5.516,2.308c3.204,2.371,4.808,6.521,4.808,12.448v34.298h-3.864
			c-1.831,0-3.019-0.172-3.563-0.516c-0.973-0.657-1.458-1.974-1.458-3.949v-0.343c-2.348,2.146-5.51,3.605-9.487,4.379
			c-1.374,0.286-2.97,0.429-4.787,0.429c-1.818,0-3.642-0.32-5.474-0.963C579.124,705.027,577.543,704.101,576.211,702.891z
			 M581.299,692.035c0,5.038,2.818,7.556,8.457,7.556c3.118,0,6.097-0.815,8.929-2.446c0.715-0.401,1.202-0.744,1.46-1.031v-13.694
			c-3.349,0-6.196,0.287-8.543,0.858c-2.347,0.573-3.942,1.061-4.786,1.461s-1.597,0.822-2.254,1.266
			c-0.659,0.444-1.231,0.967-1.717,1.566C581.814,688.802,581.299,690.29,581.299,692.035z"/>
		<path d="M643.846,665.248c-4.094,0-7.657,1.539-10.689,4.618v36.722h-9.443v-49.625h7.94l0.603,6.031
			c1.889-2.412,4.936-4.215,9.144-5.407c1.373-0.416,2.976-0.624,4.808-0.624c1.83,0,3.19,0,4.078,0v10.029
			C648.74,665.83,646.593,665.248,643.846,665.248z"/>
		<path d="M661.447,664.089h-6.354v-5.107c1.058-0.314,1.988-0.578,2.79-0.792c0.801-0.214,1.488-0.449,2.061-0.706
			c1.145-0.543,1.931-1.377,2.361-2.503c0.429-1.127,0.865-2.439,1.309-3.937c0.442-1.497,0.966-3.23,1.568-5.2h5.666v11.119h13.822
			v7.126h-13.822v24.796c0,4.611,0.257,7.376,0.772,8.293c0.515,0.916,1.123,1.461,1.824,1.633c0.7,0.172,1.502,0.258,2.404,0.258
			c0.901,0,1.752-0.057,2.555-0.172c0.8-0.113,1.588-0.258,2.359-0.43c1.805-0.399,3.091-0.814,3.865-1.244l1.63,5.416
			c-2.317,1.718-5.552,2.934-9.701,3.648c-1.316,0.23-2.677,0.344-4.078,0.344c-1.403,0-2.79-0.172-4.164-0.516
			c-1.374-0.343-2.575-0.974-3.605-1.891c-2.176-1.976-3.263-5.313-3.263-10.013V664.089z"/>
		<path d="M713.133,706.631c-3.521,0-6.64-0.706-9.359-2.118c-7.67-3.899-11.505-11.57-11.505-23.012
			c0-7.939,2.176-14.084,6.525-18.436c4.063-4.068,9.33-6.103,15.798-6.103c7.384,0,12.95,2.585,16.699,7.755
			c3.205,4.437,4.808,10.341,4.808,17.715c0,7.657-2.188,13.689-6.567,18.096C725.524,704.598,720.059,706.631,713.133,706.631z
			 M714.163,699.934c4.034,0,7.104-1.511,9.207-4.533c2.105-3.021,3.156-7.359,3.156-13.013c0-8.547-2.232-14.255-6.696-17.124
			c-1.604-1.012-3.536-1.518-5.796-1.518c-3.949,0-6.97,1.477-9.059,4.429c-2.088,2.953-3.133,7.198-3.133,12.737
			c0,5.456,1.045,9.99,3.133,13.603C707.064,698.128,710.127,699.934,714.163,699.934z"/>
	</g>
</g>
</svg>
