<?xml version="1.0" encoding="utf-8"?>
<!-- Generator: Adobe Illustrator 16.0.0, SVG Export Plug-In . SVG Version: 6.00 Build 0)  -->
<!DOCTYPE svg PUBLIC "-//W3C//DTD SVG 1.1//EN" "http://www.w3.org/Graphics/SVG/1.1/DTD/svg11.dtd">
<svg version="1.1" xmlns="http://www.w3.org/2000/svg" xmlns:xlink="http://www.w3.org/1999/xlink" x="0px" y="0px" width="768px"
	 height="768px" viewBox="0 0 768 768" enable-background="new 0 0 768 768" xml:space="preserve">
<g id="Capa_1">
	<rect x="11" y="10" fill="#29ABE2" stroke="#0071BC" stroke-width="20" stroke-miterlimit="10" width="748" height="748"/>
</g>
<g id="Capa_4">
	<path fill="#FFFFFF" stroke="#000000" stroke-width="4" stroke-miterlimit="10" d="M191.646,561.127
		c31.31-0.921,82.662-17.343,123.4-28.548c38.479-10.584,146.422-46.966,172.208-62.621c18.245-11.078,27.857-26.121,31.31-39.343
		c6.347-24.305-15.566-45.38-65.383-64.696c-25.523-9.897-89.91-33.028-100.197-34.057c-10.285-1.029,71.01-18.946,96.697-32.917
		c29.285-15.928,61.72-46.291,44.231-92.581c-17.487-46.29-59.662-60.692-114.182-45.262
		c-54.52,15.431-234.892,87.823-238.652,175.903c-2.963,69.41,47.034,90.646,76.353,93.609
		c70.909,7.165,135.552,3.085,135.552,3.085S140.27,562.638,191.646,561.127z"/>
	<line fill="none" stroke="#000000" stroke-width="4" stroke-miterlimit="10" x1="502.996" y1="351.108" x2="565.44" y2="437.78"/>
	<line fill="none" stroke="#000000" stroke-width="4" stroke-miterlimit="10" x1="512" y1="335" x2="627" y2="335"/>
	<line fill="none" stroke="#000000" stroke-width="4" stroke-miterlimit="10" x1="511.982" y1="343.843" x2="611.4" y2="393.988"/>
	<path fill="#FFFFFF" stroke="#000000" stroke-width="4" stroke-miterlimit="10" d="M508.313,236.907
		c0-32.669,25.563-59.149,57.09-59.149c18.573,0,57.092,12.703,57.092,59.149c0,32.668-25.563,59.149-57.092,59.149
		C533.877,296.056,508.313,269.575,508.313,236.907z"/>
	<g>
		<path d="M141.716,702.351h-17.338h-3.868v-69.258h5.097h16.381c10.951,0,19.203,2.883,24.754,8.646
			c5.399,5.557,8.1,13.579,8.1,24.067c0,11.528-3.034,20.561-9.101,27.096C159.856,699.201,151.848,702.351,141.716,702.351z
			 M158.052,646.11c-2.063-2.146-4.635-3.691-7.713-4.637c-3.08-0.945-6.553-1.418-10.42-1.418s-6.939,0.277-9.215,0.835v53.44
			c2.396,0.462,6.325,0.693,11.786,0.693c10.375,0,17.094-5.013,20.159-15.036c1.092-3.512,1.638-7.767,1.638-12.764
			s-0.523-9.229-1.57-12.695C161.669,651.063,160.115,648.257,158.052,646.11z"/>
		<path d="M205.149,702.396c-3.732,0-7.038-0.749-9.92-2.246c-8.13-4.133-12.195-12.263-12.195-24.393
			c0-8.416,2.305-14.93,6.917-19.541c4.307-4.313,9.89-6.47,16.746-6.47c7.827,0,13.727,2.741,17.701,8.221
			c3.397,4.702,5.097,10.962,5.097,18.778c0,8.116-2.321,14.511-6.962,19.181C218.284,700.24,212.49,702.396,205.149,702.396z
			 M206.242,695.298c4.277,0,7.53-1.603,9.76-4.807c2.229-3.203,3.344-7.802,3.344-13.793c0-9.061-2.366-15.11-7.098-18.151
			c-1.7-1.073-3.747-1.609-6.143-1.609c-4.187,0-7.388,1.564-9.602,4.694c-2.215,3.13-3.322,7.631-3.322,13.502
			c0,5.783,1.107,10.59,3.322,14.419C198.717,693.382,201.964,695.298,206.242,695.298z"/>
		<path d="M242.827,627.223h10.011v75.128h-10.011V627.223z"/>
		<path d="M288.24,702.396c-3.731,0-7.038-0.749-9.92-2.246c-8.13-4.133-12.195-12.263-12.195-24.393
			c0-8.416,2.305-14.93,6.917-19.541c4.307-4.313,9.89-6.47,16.746-6.47c7.827,0,13.727,2.741,17.701,8.221
			c3.397,4.702,5.097,10.962,5.097,18.778c0,8.116-2.321,14.511-6.962,19.181C301.375,700.24,295.582,702.396,288.24,702.396z
			 M289.333,695.298c4.277,0,7.531-1.603,9.761-4.807c2.23-3.203,3.345-7.802,3.345-13.793c0-9.061-2.366-15.11-7.099-18.151
			c-1.699-1.073-3.747-1.609-6.143-1.609c-4.187,0-7.388,1.564-9.602,4.694c-2.214,3.13-3.321,7.631-3.321,13.502
			c0,5.783,1.107,10.59,3.321,14.419C281.808,693.382,285.055,695.298,289.333,695.298z"/>
		<path d="M345.94,658.529c-4.339,0-8.116,1.632-11.331,4.896v38.925h-10.011v-52.604h8.418l0.637,6.394
			c2.002-2.557,5.232-4.468,9.692-5.732c1.457-0.44,3.155-0.661,5.097-0.661c1.941,0,3.382,0,4.323,0v10.632
			C351.128,659.146,348.853,658.529,345.94,658.529z"/>
		<path d="M420.567,636.218c-1.82-0.657-3.854-0.986-6.097-0.986c-2.246,0-3.816,0.179-4.711,0.535
			c-0.895,0.357-1.677,0.893-2.344,1.606c-1.396,1.48-2.092,3.637-2.092,6.465v5.909h12.832v7.554h-12.832v45.05h-10.012v-45.05
			h-7.872v-5.552l7.872-2.002v-4.114c0-8.312,3.396-13.908,10.193-16.789c2.577-1.081,5.285-1.621,8.122-1.621
			s5.148,0.334,6.939,1.001V636.218z"/>
		<path d="M428.668,649.747h10.01v30.292c0,6.073,0.729,10.037,2.185,11.889c0.759,0.942,1.744,1.549,2.958,1.822
			c1.213,0.273,2.487,0.41,3.822,0.41c1.334,0,2.563-0.122,3.686-0.364s2.215-0.546,3.277-0.91c2.092-0.728,3.807-1.517,5.142-2.366
			v-40.772h10.011v52.649h-3.867c-1.791,0-2.959-0.183-3.504-0.547c-1.002-0.637-1.502-1.789-1.502-3.458v-1.274
			c-3.672,2.307-7.797,3.914-12.377,4.824c-1.548,0.303-3.497,0.455-5.848,0.455c-2.352,0-4.535-0.539-6.553-1.618
			c-2.018-1.077-3.588-2.602-4.71-4.577c-1.82-3.217-2.729-8.591-2.729-16.121V649.747z"/>
		<path d="M491.964,677.914c0.456,8.98,3.762,14.35,9.92,16.109c1.851,0.546,3.519,0.818,5.006,0.818
			c1.486,0,2.844-0.074,4.073-0.228c1.229-0.15,2.448-0.348,3.662-0.591c2.821-0.606,4.87-1.274,6.144-2.002l1.911,5.733
			c-2.518,2.063-6.734,3.488-12.65,4.277c-1.699,0.243-3.321,0.364-4.869,0.364c-7.342,0-13.014-2.336-17.019-7.008
			c-3.975-4.612-5.961-11.081-5.961-19.407c0-7.696,1.956-13.896,5.869-18.598c4.247-5.09,10.104-7.637,17.565-7.637
			c5.309,0,9.646,1.57,13.014,4.709c3.701,3.525,5.643,8.323,5.825,14.396c0,4.502-0.167,7.523-0.5,9.063H491.964z M515.125,669.359
			c0-8.342-3.442-12.513-10.328-12.513c-7.313,0-11.513,4.808-12.605,14.424h22.89C515.11,670.634,515.125,669.997,515.125,669.359z
			"/>
		<path d="M557.854,658.529c-4.339,0-8.114,1.632-11.33,4.896v38.925h-10.011v-52.604h8.417l0.638,6.394
			c2.002-2.557,5.233-4.468,9.692-5.732c1.456-0.44,3.155-0.661,5.096-0.661c1.941,0,3.383,0,4.324,0v10.632
			C563.042,659.146,560.767,658.529,557.854,658.529z"/>
		<path d="M576.511,657.301h-6.734v-5.415c1.123-0.332,2.108-0.612,2.959-0.838c0.848-0.228,1.576-0.478,2.184-0.749
			c1.213-0.574,2.048-1.459,2.502-2.653c0.456-1.193,0.918-2.585,1.389-4.173c0.47-1.587,1.023-3.425,1.661-5.511h6.006v11.785
			h14.653v7.554h-14.653v26.284c0,4.889,0.273,7.819,0.819,8.79c0.546,0.973,1.19,1.549,1.934,1.731s1.593,0.273,2.549,0.273
			c0.955,0,1.857-0.062,2.707-0.183c0.85-0.12,1.685-0.273,2.503-0.455c1.911-0.425,3.276-0.864,4.096-1.32l1.729,5.742
			c-2.457,1.82-5.885,3.11-10.283,3.868c-1.396,0.243-2.837,0.364-4.323,0.364s-2.957-0.183-4.414-0.547
			c-1.456-0.364-2.73-1.033-3.822-2.005c-2.306-2.094-3.459-5.632-3.459-10.612V657.301z"/>
		<path d="M619.013,677.914c0.455,8.98,3.762,14.35,9.92,16.109c1.851,0.546,3.519,0.818,5.006,0.818
			c1.486,0,2.844-0.074,4.072-0.228c1.229-0.15,2.449-0.348,3.663-0.591c2.821-0.606,4.869-1.274,6.143-2.002l1.912,5.733
			c-2.519,2.063-6.734,3.488-12.65,4.277c-1.699,0.243-3.321,0.364-4.869,0.364c-7.342,0-13.014-2.336-17.019-7.008
			c-3.975-4.612-5.962-11.081-5.962-19.407c0-7.696,1.958-13.896,5.87-18.598c4.247-5.09,10.103-7.637,17.565-7.637
			c5.309,0,9.646,1.57,13.014,4.709c3.701,3.525,5.643,8.323,5.825,14.396c0,4.502-0.168,7.523-0.5,9.063H619.013z M642.174,669.359
			c0-8.342-3.442-12.513-10.329-12.513c-7.312,0-11.512,4.808-12.605,14.424h22.89C642.159,670.634,642.174,669.997,642.174,669.359
			z"/>
	</g>
</g>
</svg>
