<?xml version="1.0" encoding="utf-8"?>
<!-- Generator: Adobe Illustrator 16.0.0, SVG Export Plug-In . SVG Version: 6.00 Build 0)  -->
<!DOCTYPE svg PUBLIC "-//W3C//DTD SVG 1.1//EN" "http://www.w3.org/Graphics/SVG/1.1/DTD/svg11.dtd">
<svg version="1.1" xmlns="http://www.w3.org/2000/svg" xmlns:xlink="http://www.w3.org/1999/xlink" x="0px" y="0px" width="768px"
	 height="768px" viewBox="0 0 768 768" enable-background="new 0 0 768 768" xml:space="preserve">
<g id="Capa_1">
	<rect x="11" y="10" fill="#29ABE2" stroke="#0071BC" stroke-width="20" stroke-miterlimit="10" width="746" height="748"/>
</g>
<g id="Capa_4">
	<path fill="#FFFFFF" stroke="#000000" stroke-width="4" stroke-miterlimit="10" d="M153.042,534.344
		c-1.521,10.953,122.255-89.142,151.546-91.69c29.291-2.548-58.966,119.111-48.394,133.717
		c3.339,4.612,111.758-135.761,164.279-173.194c40.909-29.159,49.2-27.361,79.233-42.713c33.855-17.306,64.719-45.083,71.041-48.979
		c19.518-12.026,47.737-50.267,57.87-71.314c8.837-18.358,7.074-128.624-5.66-142.631c-12.734-14.007-138.808,47.118-142.629,48.392
		c-3.821,1.274,98.056-12.735,104.425-11.461s24.198,2.548,6.369,50.94c-17.831,48.392-28.018,70.042-53.487,73.863
		c-25.471,3.821-82.778,5.093-101.88,21.648c-19.103,16.556-71.289,77.71-82.773,86.597c-21.494,16.632-48.295,27.366-78.958,42.026
		C238.564,426.494,159.09,490.798,153.042,534.344z"/>
	<path fill="none" stroke="#000000" stroke-width="4" stroke-miterlimit="10" d="M429.39,167.581c0,0-28.019,20.376-5.097,57.307"/>
	<path fill="none" stroke="#000000" stroke-width="4" stroke-miterlimit="10" d="M457.406,167.581c0,0-29.308,15.206-6.369,57.307"
		/>
	
		<ellipse fill="#FFFFFF" stroke="#000000" stroke-width="4" stroke-miterlimit="10" cx="518.533" cy="198.781" rx="38.205" ry="41.389"/>
</g>
<g id="Capa_5">
	<g>
		<path d="M141.607,675.52H120.51h-4.707v-84.276h6.202h19.934c13.326,0,23.367,3.507,30.123,10.521
			c6.57,6.762,9.856,16.523,9.856,29.286c0,14.028-3.692,25.02-11.075,32.973C163.681,671.688,153.936,675.52,141.607,675.52z
			 M161.485,607.084c-2.511-2.611-5.64-4.492-9.386-5.643c-3.747-1.151-7.974-1.727-12.68-1.727s-8.444,0.34-11.213,1.018v65.027
			c2.916,0.563,7.697,0.846,14.341,0.846c12.625,0,20.801-6.1,24.53-18.298c1.329-4.273,1.993-9.45,1.993-15.53
			c0-6.082-0.637-11.231-1.91-15.449C165.888,613.109,163.996,609.695,161.485,607.084z"/>
		<path d="M203.845,645.785c0.554,10.927,4.577,17.461,12.071,19.602c2.251,0.664,4.282,0.997,6.091,0.997
			c1.808,0,3.461-0.093,4.956-0.277c1.495-0.184,2.98-0.424,4.458-0.72c3.433-0.737,5.925-1.551,7.475-2.437l2.326,6.978
			c-3.064,2.51-8.195,4.245-15.394,5.205c-2.068,0.295-4.042,0.442-5.925,0.442c-8.934,0-15.836-2.842-20.709-8.527
			c-4.836-5.611-7.253-13.483-7.253-23.614c0-9.366,2.381-16.909,7.143-22.632c5.168-6.194,12.292-9.292,21.374-9.292
			c6.459,0,11.739,1.91,15.836,5.729c4.503,4.29,6.866,10.128,7.088,17.517c0,5.479-0.203,9.155-0.609,11.029H203.845z
			 M232.03,635.374c0-10.15-4.19-15.227-12.569-15.227c-8.897,0-14.009,5.852-15.338,17.553h27.853
			C232.011,636.926,232.03,636.15,232.03,635.374z"/>
		<path d="M256.781,662.151c2.51,1.609,6.441,2.879,11.794,3.808c2.178,0.395,4.651,0.591,7.42,0.591s5.122-0.664,7.06-1.991
			s2.907-3.21,2.907-5.646c0-3.236-2.658-6.146-7.974-8.729c-1.55-0.763-3.405-1.6-5.565-2.509
			c-2.159-0.908-4.328-1.982-6.506-3.219c-7.052-4.109-10.576-9.6-10.576-16.474c0-5.309,2.27-9.455,6.811-12.438
			c4.061-2.69,9.394-4.036,16.003-4.036c5.02,0,9.615,0.775,13.788,2.325c0.997,0.37,1.735,0.684,2.215,0.941l-1.994,9.718
			c-1.771-1.699-4.873-2.909-9.302-3.632c-1.404-0.255-2.843-0.383-4.319-0.383c-3.913,0-6.885,0.609-8.915,1.827
			c-2.031,1.219-3.046,2.71-3.046,4.473c0,1.766,0.268,3.175,0.803,4.229c0.535,1.055,1.337,2.019,2.409,2.89
			c1.735,1.492,4.199,2.874,7.392,4.146c3.192,1.274,5.888,2.482,8.084,3.628c2.196,1.146,4.199,2.482,6.008,4.01
			c4.023,3.491,6.036,7.654,6.036,12.491c0,5.601-2.013,9.911-6.036,12.929c-3.876,2.982-9.284,4.473-16.224,4.473
			c-6.35,0-11.979-0.959-16.889-2.879c-1.403-0.517-2.473-1.053-3.211-1.606L256.781,662.151z"/>
		<path d="M312.597,611.51h10.853l0.055,7.431c4.614-3.065,9.782-5.274,15.504-6.629c2.399-0.535,5.094-0.802,8.084-0.802
			c6.977,0,11.72,2.56,14.23,7.676c4.43-3.257,9.746-5.563,15.947-6.924c2.326-0.501,4.854-0.752,7.586-0.752
			c2.732,0,5.261,0.388,7.586,1.162s4.244,2.14,5.759,4.094c2.952,3.762,4.43,10.18,4.43,19.252v39.502h-12.182v-39.328
			c0-5.458-0.702-9.202-2.104-11.23c-1.515-2.212-4.246-3.318-8.196-3.318c-5.833,0-11.388,1.898-16.667,5.697
			c0.333,2.545,0.499,5.44,0.499,8.686v39.494H351.8v-39.328c0-5.458-0.702-9.202-2.104-11.23c-1.514-2.212-4.246-3.318-8.195-3.318
			c-4.024,0-8.27,1.261-12.735,3.782c-1.404,0.786-2.732,1.695-3.987,2.729v47.366h-12.182V611.51z"/>
		<path d="M422.705,670.75c-1.717-1.562-3.056-3.462-4.015-5.701c-0.96-2.238-1.439-5.107-1.439-8.606s1.107-6.716,3.322-9.651
			c4.651-6.171,13.732-9.257,27.243-9.257c2.066,0,3.987,0,5.759,0v-6.388c0-4.26-1.107-7.131-3.322-8.611
			c-1.846-1.222-5.224-1.834-10.133-1.834c-4.246,0-8.915,1.001-14.01,3.003c-1.329,0.509-2.344,1.019-3.045,1.527l-2.99-7.908
			c3.174-1.993,8.435-3.69,15.781-5.094c2.51-0.479,5.214-0.72,8.111-0.72s5.722,0.264,8.473,0.792
			c2.75,0.527,5.122,1.52,7.115,2.977c4.134,3.058,6.201,8.41,6.201,16.058v44.239h-4.983c-2.363,0-3.895-0.222-4.596-0.664
			c-1.256-0.849-1.883-2.548-1.883-5.095v-0.442c-3.027,2.769-7.106,4.65-12.237,5.647c-1.771,0.37-3.83,0.554-6.174,0.554
			c-2.345,0-4.697-0.413-7.06-1.241C426.461,673.507,424.422,672.312,422.705,670.75z M429.267,656.749
			c0,6.497,3.636,9.745,10.908,9.745c4.023,0,7.863-1.052,11.518-3.156c0.923-0.516,1.551-0.959,1.883-1.329v-17.663
			c-4.319,0-7.992,0.369-11.02,1.107s-5.085,1.366-6.174,1.882c-1.089,0.518-2.059,1.063-2.906,1.634
			c-0.85,0.572-1.589,1.246-2.216,2.021C429.932,652.578,429.267,654.497,429.267,656.749z"/>
		<path d="M481.926,692.907c1.07,0.405,2.51,0.608,4.319,0.608c1.809,0,3.47-0.231,4.983-0.691c1.513-0.462,3.046-1.357,4.596-2.686
			c3.581-3.064,6.164-7.938,7.752-14.619h-3.599l-22.869-64.01h13.013l13.954,43.238l3.211,10.473l14.785-53.711h13.123
			l-21.263,65.75c-4.763,14.573-11.37,23.072-19.824,25.495c-2.104,0.56-4.484,0.839-7.143,0.839s-4.338-0.259-5.039-0.775V692.907z
			"/>
		<path d="M568.694,675.575c-4.54,0-8.564-0.911-12.071-2.732c-9.894-5.029-14.84-14.923-14.84-29.683
			c0-10.24,2.806-18.167,8.417-23.779c5.241-5.247,12.033-7.871,20.377-7.871c9.524,0,16.704,3.335,21.54,10.003
			c4.134,5.722,6.201,13.338,6.201,22.85c0,9.877-2.823,17.657-8.472,23.341C584.679,672.952,577.627,675.575,568.694,675.575z
			 M570.023,666.938c5.205,0,9.164-1.95,11.877-5.849c2.714-3.898,4.07-9.493,4.07-16.784c0-11.025-2.88-18.388-8.638-22.088
			c-2.068-1.306-4.56-1.959-7.476-1.959c-5.095,0-8.989,1.904-11.684,5.714c-2.695,3.808-4.042,9.284-4.042,16.43
			c0,7.036,1.347,12.886,4.042,17.545C560.868,664.607,564.818,666.938,570.023,666.938z"/>
		<path d="M611.663,662.151c2.51,1.609,6.441,2.879,11.795,3.808c2.177,0.395,4.651,0.591,7.42,0.591s5.122-0.664,7.06-1.991
			c1.938-1.327,2.907-3.21,2.907-5.646c0-3.236-2.658-6.146-7.974-8.729c-1.551-0.763-3.405-1.6-5.565-2.509
			c-2.159-0.908-4.328-1.982-6.506-3.219c-7.051-4.109-10.576-9.6-10.576-16.474c0-5.309,2.271-9.455,6.811-12.438
			c4.061-2.69,9.395-4.036,16.003-4.036c5.021,0,9.616,0.775,13.788,2.325c0.996,0.37,1.734,0.684,2.215,0.941l-1.993,9.718
			c-1.772-1.699-4.873-2.909-9.303-3.632c-1.403-0.255-2.843-0.383-4.319-0.383c-3.914,0-6.885,0.609-8.915,1.827
			c-2.031,1.219-3.046,2.71-3.046,4.473c0,1.766,0.268,3.175,0.804,4.229c0.534,1.055,1.338,2.019,2.408,2.89
			c1.734,1.492,4.198,2.874,7.393,4.146c3.192,1.274,5.887,2.482,8.084,3.628c2.196,1.146,4.198,2.482,6.008,4.01
			c4.023,3.491,6.036,7.654,6.036,12.491c0,5.601-2.013,9.911-6.036,12.929c-3.876,2.982-9.284,4.473-16.224,4.473
			c-6.351,0-11.979-0.959-16.889-2.879c-1.403-0.517-2.474-1.053-3.212-1.606L611.663,662.151z"/>
	</g>
</g>
</svg>
